<svg width="1001" height="667" viewBox="0 0 1001 667" fill="none" xmlns="http://www.w3.org/2000/svg">
<g opacity="0.9">
<path d="M1000.29 666.667H0.289185V-9.25064e-05H1000.29V666.667Z" fill="white"/>
<mask id="mask0_2_632" style="mask-type:luminance" maskUnits="userSpaceOnUse" x="333" y="0" width="668" height="667">
<path d="M1000.29 666.667H333.622V-9.25064e-05H1000.29V666.667Z" fill="white"/>
</mask>
<g mask="url(#mask0_2_632)">
<path d="M1000.29 666.667H333.622V-9.25064e-05H1000.29V666.667Z" fill="white"/>
<path d="M986.053 69.1092C982.173 70.9506 978.706 73.6986 975.76 77.5386C970.32 84.6306 968.28 94.2266 972.76 102.333C975.226 106.82 979.373 110.283 984.08 112.289C991.773 115.567 1001.04 114.896 1008.19 110.544C1015.32 106.191 1020.16 98.2693 1020.77 89.9279C1021.25 83.5826 1019.27 76.9826 1014.93 72.3159C1011.35 68.4399 1006.11 66.0266 1000.8 66.0586C995.426 66.0906 990.466 67.0159 986.053 69.1092Z" fill="#D43644"/>
<path d="M998.693 61.7866C997.76 61.8093 997.12 62.7359 996.8 63.6093C996.4 64.6813 996.24 65.836 996.293 66.9773C996.333 67.7266 997.093 69.44 996.48 70.0106C996.173 70.288 995.747 70.3733 995.36 70.4826C994.44 70.7346 993.587 71.1773 992.853 71.7759C992.4 72.1373 991.973 72.68 992.133 73.2306C992.253 73.6093 992.627 73.8613 993.027 73.9199C993.413 73.9786 993.813 73.8786 994.187 73.7479C994.773 73.5386 995.347 73.2493 995.867 72.8933C996.213 72.6533 996.627 72.3666 997.027 72.5213C997.4 72.6693 997.52 73.1733 997.4 73.5613C997.28 73.9506 996.987 74.2533 996.72 74.5613C996.32 75.02 995.96 75.5319 995.8 76.1173C995.44 77.3746 996.253 78.4479 997.493 78.7346C998.213 78.9039 999.2 78.5093 999.467 77.7853C999.827 76.8106 999.72 75.6933 1000.21 74.78C1000.32 74.584 1000.53 74.3786 1000.73 74.4773C1000.88 74.5546 1000.91 74.7626 1000.91 74.936C1000.92 75.3946 1000.97 75.8706 1001.21 76.2666C1001.53 76.7946 1002.51 77.188 1003.12 77.1826C1003.99 77.1733 1004.71 76.36 1004.76 75.5C1004.8 74.6386 1004.25 73.8119 1003.51 73.3813C1003.33 73.2733 1003.12 73.1826 1002.97 73.0306C1002.81 72.8786 1002.72 72.6386 1002.81 72.4426C1002.91 72.2519 1003.15 72.172 1003.36 72.188C1003.57 72.2066 1003.76 72.3013 1003.96 72.3759C1004.72 72.6599 1005.6 72.64 1006.35 72.3213C1006.85 72.1013 1007.39 71.6026 1007.11 71.0026C1006.91 70.5573 1006.23 70.2626 1005.8 70.0506C1004.89 69.5919 1003.53 69.7653 1002.73 69.1839C1001.83 68.5359 1001.65 67.4373 1001.43 66.4426C1001.04 64.8239 1001.05 61.7279 998.693 61.7866Z" fill="#73CA54"/>
<path d="M998.533 14.1999C994.693 13.6746 990.8 13.184 986.947 13.6626C983.107 14.1413 979.24 15.6946 976.733 18.6479C974.213 21.5999 973.333 26.0986 975.253 29.4719C977.24 32.9599 981.44 34.4133 985.307 35.4933C999.093 39.3493 1013.24 42.0186 1027.51 43.1893C1033.57 43.6866 1040.41 43.6386 1044.75 39.3693C1049.29 34.8933 1049.39 25.1199 1042.73 22.7559C1034.05 19.6706 1024.27 18.3319 1015.23 16.7639C1009.68 15.8026 1004.11 14.9626 998.533 14.1999Z" fill="#A4373C"/>
<path d="M980.613 19.3452C979.066 20.9639 978.12 23.2345 978.4 25.4585C978.667 27.6932 980.12 29.6732 981.987 30.9266C985 32.9426 989.2 33.1199 992.253 31.1692C995.307 29.2185 996.906 25.1599 995.813 21.7106C993.653 14.9905 984.88 14.8825 980.613 19.3452Z" fill="#B64E4F"/>
<path d="M920.893 70.8519C920.666 73.0493 920.6 75.6493 922.32 77.0266C923.733 78.1493 925.747 77.9546 927.52 77.6826C939.813 75.8119 951.946 73.0386 963.826 69.3933C966.266 68.6466 968.866 67.7279 970.28 65.6092C972.48 62.2812 970.707 57.8426 968.787 54.3359C961 40.0466 951.48 26.7186 940.68 14.5426C939.2 12.8746 937.573 11.1466 935.413 10.5972C929.626 9.12792 929.08 15.8626 928.387 19.5786C927.333 25.2399 926.346 30.9146 925.44 36.6026C923.613 47.9759 922.106 59.3986 920.893 70.8519Z" fill="#FBC434"/>
<path d="M931 67.6906C933.88 69.8772 938.173 69.9292 941.093 67.8145C947.187 63.4025 944.493 52.6612 936.653 52.6425C929.293 52.6265 924.853 62.9946 931 67.6906Z" fill="#E8A22A"/>
<path d="M944.28 48.8466C946.253 50.3599 949.24 50.3959 951.253 48.9319C955.467 45.8786 953.613 38.4452 948.187 38.4332C943.08 38.4212 940.013 45.5959 944.28 48.8466Z" fill="#E8A22A"/>
<path d="M934.28 32.5332C935.84 33.7172 938.173 33.7465 939.747 32.6012C943.04 30.2119 941.587 24.3933 937.333 24.3853C933.347 24.3759 930.947 29.9906 934.28 32.5332Z" fill="#E8A22A"/>
<path d="M936.84 -9.03879C935.387 -8.01345 933.827 -6.84547 933.387 -5.1188C932.853 -3.03347 934.133 -0.958787 935.387 0.794546C936.44 2.27321 937.653 3.84124 939.427 4.25991C941.507 4.75191 943.573 3.46653 945.213 2.0812C947.026 0.543866 948.667 -1.19481 950.107 -3.09347C951.333 -4.72814 952.44 -6.53079 952.827 -8.54146C953.213 -10.5521 952.787 -12.8121 951.32 -14.2415C947 -18.4401 940.12 -11.3388 936.84 -9.03879Z" fill="#F1CBA4"/>
<path d="M940.28 -26.4401C938.466 -25.1667 936.667 -23.5174 936.32 -21.3281C935.853 -18.4374 938.04 -15.8601 940.053 -13.7441C943.36 -10.2894 946.666 -6.83476 949.973 -3.3801C951.96 -1.30276 954.16 0.889222 957 1.33989C960.253 1.85456 963.4 -0.0881059 965.72 -2.42144C970.053 -6.77744 972.68 -13.0108 971.96 -19.1134C971.253 -25.0374 966.32 -32.3254 959.853 -32.7628C953.307 -33.2054 945.52 -30.1214 940.28 -26.4401Z" fill="#F3E2C5"/>
<path d="M890.453 19.2159C890.88 24.5533 896.093 29.9279 902 30.4133C906.426 30.7759 910.453 28.4986 912.6 25.2386C914.853 21.7906 915.16 17.0826 912.813 13.2146C905.586 1.29989 889.573 8.34259 890.453 19.2159Z" fill="#834545"/>
<path d="M1005.04 4.7933C1008.73 7.7853 1014.77 7.69995 1017.95 4.17195C1020.32 1.53195 1020.8 -2.47338 1019.71 -5.85604C1018.55 -9.43338 1015.63 -12.5121 1011.96 -13.3641C1000.69 -15.9854 997.52 -1.30536 1005.04 4.7933Z" fill="#ECDB4A"/>
<path d="M891 -17.0855C890.133 -16.9442 889.053 -16.6175 887.92 -16.1401C888.093 -16.5081 888.24 -16.8855 888.387 -17.2722C892.28 -20.9522 896.627 -24.1562 901.293 -26.7828C905.173 -24.0522 912.64 -26.1615 916.16 -28.0602C921.867 -31.1335 926 -36.4748 929.307 -42.0495C925.12 -43.1788 920.853 -44.1548 916.52 -44.1028C912.2 -44.0521 907.76 -42.8908 904.413 -40.1481C902.12 -38.2695 898.733 -33.3588 899.387 -29.7028C898.867 -29.4228 898.373 -29.1015 897.893 -28.7761C894.987 -26.8241 892.226 -24.6761 889.613 -22.3641C889.786 -23.7295 889.84 -25.0095 889.787 -26.0428C889.453 -32.5148 886.413 -38.5468 882.8 -43.9242C879.987 -40.6348 877.267 -37.1948 875.453 -33.2641C873.64 -29.3335 872.773 -24.8308 873.813 -20.6268C874.44 -18.0908 876.827 -13.7761 879.84 -12.1121C877.667 -9.40813 875.667 -6.56946 873.853 -3.6148C872 -0.588129 867.12 5.89721 867.24 9.62921C867.4 14.6532 871.92 7.29049 872.68 5.43983C874.84 0.201159 877.72 -4.72684 881.146 -9.22951C881.133 -8.85884 881.173 -8.48017 881.253 -8.09351C882.44 -3.06951 890.813 -0.869455 895.12 -0.740122C901.6 -0.545455 907.853 -3.10146 913.507 -6.27612C910.453 -9.34546 907.24 -12.3282 903.467 -14.4495C899.693 -16.5708 895.267 -17.7855 891 -17.0855Z" fill="#73CA54"/>
<path d="M934.56 178.896C935.853 183.361 937.146 187.827 938.44 192.291C938.96 194.12 939.506 195.976 940.52 197.587C943.666 202.565 949.226 201.217 953.24 198.395C958.746 194.532 963.813 189.656 969.866 186.651C981.266 180.991 990.373 171.479 999.706 163.057C1000.67 162.196 1001.69 161.156 1001.64 159.872C1001.6 159.001 1001.05 158.244 1000.52 157.555C997.693 153.893 994.586 150.084 991.36 146.812C985.986 141.367 980.773 135.764 975.32 130.388C963.546 118.752 950.893 107.377 935.653 100.549C933.373 99.5265 930.6 98.6305 928.506 100.013C926.52 101.341 926.186 104.1 926.12 106.499C925.653 122.607 926.973 139.037 929.266 154.972C930.133 160.996 931.053 166.793 932.746 172.624C933.346 174.715 933.96 176.805 934.56 178.896Z" fill="#FABD50"/>
<path d="M982.973 166.22C972.92 175.916 961.307 183.856 948.76 189.619C945.147 191.277 941.2 192.984 939.213 196.545C937.84 199.024 937.666 202.201 938.773 204.844C939.88 207.487 942.227 209.528 944.92 210.177C949.307 211.237 953.666 208.744 957.506 206.344C973.506 196.361 989.653 186.251 1002.97 172.655C1006.23 169.339 1009.92 164.463 1008.45 159.403C1006.64 153.171 1000.33 151.679 995.48 154.619C990.613 157.572 987.066 162.284 982.973 166.22Z" fill="#F7913B"/>
<path d="M959.213 143.647C961.826 146.643 966.813 147.171 969.987 144.791C971.133 143.94 972.04 142.763 972.467 141.408C973.12 139.348 972.6 137.08 971.64 135.143C970.573 132.977 968.867 131.013 966.6 130.196C958.92 127.432 954.786 138.581 959.213 143.647Z" fill="#B64E4F"/>
<path d="M933.053 122.919C933.92 126.811 938.053 129.676 942 129.113C943.4 128.912 944.773 128.315 945.8 127.328C947.36 125.828 948 123.583 948.093 121.42C948.187 119 947.64 116.452 946.027 114.639C940.6 108.513 931.6 116.335 933.053 122.919Z" fill="#D43644"/>
<path d="M944.187 170.557C945.04 174.451 949.173 177.316 953.12 176.752C954.533 176.552 955.893 175.955 956.933 174.968C958.493 173.468 959.12 171.223 959.213 169.06C959.32 166.64 958.76 164.091 957.16 162.279C951.733 156.152 942.733 163.973 944.187 170.557Z" fill="#D43644"/>
<path d="M947.773 156.868C949.466 157.805 951.787 157.148 952.933 155.591C954.08 154.035 954.106 151.807 953.213 150.089C952.32 148.371 950.626 147.155 948.773 146.583C947.373 146.148 945.8 146.068 944.48 146.721C940.413 148.747 945.04 155.357 947.773 156.868Z" fill="#F1CBA4"/>
<path d="M935.946 145.613C934.933 148.376 935.053 151.539 936.293 154.211C936.747 155.184 937.36 156.113 938.227 156.744C939.093 157.375 940.253 157.668 941.266 157.323C942.826 156.793 943.56 155.035 943.92 153.432C944.28 151.828 944.506 150.069 945.64 148.889C946.853 147.632 948.813 147.36 950.093 146.16C954.227 142.26 948.587 138.193 944.787 138.183C940.72 138.171 937.28 141.979 935.946 145.613Z" fill="#F3E2C5"/>
<path d="M977.213 155.052C977.4 152.737 977.133 150.396 976.84 147.84C976.733 146.939 976.68 146 976.987 145.147C977.307 144.295 978.08 143.552 978.987 143.551C979.88 143.549 980.653 144.265 981 145.092C981.333 145.919 981.346 146.841 981.346 147.737C981.346 152.599 982.427 156.039 980.493 160.609C979.76 162.339 977.293 167.949 974.973 164.649C974.24 163.589 974.946 162.167 975.546 161.015C976.586 158.969 977.066 157.02 977.213 155.052Z" fill="#53A16B"/>
<path d="M950.16 129.577C949.626 130.368 948.986 131.112 948.653 132.007C948.306 132.901 948.333 134.02 949.026 134.692C949.666 135.335 950.746 135.375 951.586 135.003C952.426 134.629 953.066 133.921 953.613 133.191C956.026 129.993 957.266 125.937 957.066 121.937C957.026 121.109 956.92 120.263 956.533 119.533C955.053 116.795 952.866 118.519 952.4 120.585C951.653 123.855 952.213 126.555 950.16 129.577Z" fill="#53A16B"/>
<path d="M935.533 132.661C937.573 131.927 939.826 132.507 939.28 135.971C938.946 138.06 936.253 139.364 934.4 138.332C930.907 136.373 933.067 133.552 935.533 132.661Z" fill="#FCD45E"/>
<path d="M966.106 156.532C968.146 155.799 970.4 156.379 969.84 159.841C969.506 161.931 966.813 163.236 964.973 162.203C961.466 160.244 963.64 157.423 966.106 156.532Z" fill="#FCD45E"/>
<path d="M945.96 180.361C948 179.625 950.24 180.205 949.693 183.669C949.36 185.759 946.667 187.063 944.827 186.031C941.32 184.072 943.48 181.251 945.96 180.361Z" fill="#FCD45E"/>
<path d="M866.573 161.564C864.053 165.044 862.32 169.113 861.573 173.893C860.2 182.724 863 192.124 870.813 197.103C875.133 199.856 880.426 200.912 885.52 200.417C893.853 199.609 901.653 194.585 905.84 187.344C910.026 180.103 910.493 170.831 907.026 163.213C904.4 157.419 899.506 152.576 893.466 150.548C888.466 148.865 882.706 149.259 878.066 151.828C873.36 154.424 869.453 157.612 866.573 161.564Z" fill="#D43644"/>
<path d="M874.173 149.084C873.36 149.551 873.24 150.668 873.387 151.591C873.547 152.723 873.946 153.816 874.546 154.788C874.946 155.428 876.427 156.568 876.16 157.367C876.027 157.753 875.693 158.032 875.4 158.316C874.72 158.975 874.187 159.776 873.827 160.651C873.6 161.183 873.48 161.867 873.893 162.272C874.173 162.549 874.627 162.587 875 162.451C875.373 162.316 875.667 162.037 875.933 161.743C876.36 161.276 876.72 160.751 877 160.189C877.187 159.812 877.413 159.363 877.84 159.308C878.24 159.257 878.6 159.64 878.667 160.04C878.747 160.44 878.64 160.848 878.546 161.247C878.426 161.839 878.347 162.46 878.493 163.052C878.787 164.324 880 164.877 881.227 164.54C881.947 164.341 882.627 163.521 882.507 162.76C882.347 161.735 881.733 160.799 881.72 159.761C881.72 159.541 881.813 159.259 882.04 159.251C882.2 159.244 882.32 159.416 882.413 159.565C882.64 159.963 882.92 160.356 883.307 160.589C883.84 160.903 884.893 160.777 885.427 160.48C886.173 160.06 886.427 158.997 886.053 158.22C885.68 157.441 884.813 156.976 883.946 156.955C883.733 156.949 883.52 156.968 883.307 156.907C883.107 156.847 882.907 156.68 882.893 156.464C882.88 156.253 883.053 156.068 883.24 155.983C883.44 155.897 883.653 155.887 883.867 155.857C884.667 155.741 885.427 155.307 885.933 154.669C886.28 154.231 886.493 153.541 885.973 153.145C885.573 152.851 884.84 152.919 884.373 152.933C883.347 152.967 882.24 153.771 881.253 153.645C880.16 153.507 879.467 152.627 878.787 151.865C877.68 150.625 876.213 147.903 874.173 149.084Z" fill="#73CA54"/>
<path d="M851.24 107.383C847.613 108.761 843.96 110.197 840.813 112.461C837.666 114.724 835.027 117.935 834.227 121.731C833.44 125.527 834.813 129.897 838.12 131.94C841.533 134.053 845.92 133.315 849.827 132.413C863.773 129.193 877.467 124.768 890.56 118.961C896.12 116.495 902.106 113.172 903.866 107.349C905.706 101.244 901.106 92.6226 894.133 93.7319C885.04 95.1799 875.813 98.6879 867.12 101.644C861.787 103.456 856.506 105.383 851.24 107.383Z" fill="#A4373C"/>
<path d="M837.973 120.481C837.386 122.645 837.653 125.088 838.946 126.913C840.253 128.747 842.48 129.787 844.733 129.991C848.333 130.319 852.106 128.463 853.853 125.288C855.6 122.115 855.066 117.784 852.44 115.284C847.333 110.415 839.586 114.521 837.973 120.481Z" fill="#B64E4F"/>
<path d="M810.213 194.299C811.053 196.34 812.24 198.652 814.426 199.033C816.2 199.345 817.866 198.211 819.306 197.119C829.186 189.595 838.52 181.344 847.2 172.457C848.986 170.637 850.826 168.584 851.053 166.051C851.4 162.071 847.706 159.027 844.346 156.863C830.666 148.048 815.933 140.907 800.613 135.388C798.52 134.631 796.266 133.896 794.106 134.449C788.32 135.928 791.066 142.103 792.24 145.697C794.013 151.175 795.866 156.628 797.8 162.056C801.653 172.911 805.786 183.664 810.213 194.299Z" fill="#FBC434"/>
<path d="M817.573 186.68C821.133 187.227 824.947 185.21 826.493 181.956C829.72 175.166 822.213 167.028 815.32 170.766C808.853 174.277 809.92 185.504 817.573 186.68Z" fill="#E8A22A"/>
<path d="M820.2 163.784C822.667 164.163 825.293 162.767 826.373 160.515C828.613 155.816 823.413 150.183 818.64 152.771C814.16 155.2 814.907 162.971 820.2 163.784Z" fill="#E8A22A"/>
<path d="M803.613 154.248C805.547 154.544 807.6 153.452 808.44 151.689C810.2 148.013 806.133 143.605 802.4 145.629C798.893 147.531 799.467 153.611 803.613 154.248Z" fill="#E8A22A"/>
<path d="M785.96 116.525C785.173 118.123 784.36 119.895 784.8 121.621C785.333 123.707 787.453 124.915 789.387 125.855C791.013 126.649 792.84 127.444 794.587 126.965C796.653 126.401 797.853 124.281 798.627 122.283C799.48 120.063 800.093 117.748 800.44 115.395C800.746 113.369 800.853 111.259 800.227 109.307C799.6 107.355 798.146 105.577 796.173 105.027C790.373 103.405 787.72 112.939 785.96 116.525Z" fill="#F1CBA4"/>
<path d="M780.64 99.5999C779.667 101.588 778.866 103.897 779.613 105.987C780.586 108.747 783.733 109.967 786.52 110.855C791.08 112.304 795.64 113.753 800.187 115.204C802.933 116.076 805.907 116.948 808.627 115.983C811.72 114.88 813.56 111.664 814.48 108.505C816.2 102.605 815.507 95.8799 811.96 90.8666C808.507 85.9999 800.68 81.9666 794.787 84.6799C788.84 87.4226 783.48 93.8613 780.64 99.5999Z" fill="#F3E2C5"/>
<path d="M884.8 79.0293C885.64 80.5999 886.613 82.2892 888.28 82.9359C890.28 83.7159 892.493 82.6906 894.387 81.6639C895.987 80.7986 897.693 79.7799 898.32 78.0785C899.053 76.0692 898.027 73.8599 896.853 72.0705C895.547 70.0825 894.013 68.2399 892.306 66.5852C890.84 65.1612 889.173 63.8519 887.227 63.2225C885.28 62.5945 882.987 62.7479 881.387 64.0319C876.693 67.8079 882.92 75.5039 884.8 79.0293Z" fill="#F1CBA4"/>
<path d="M867.946 73.5132C868.986 75.4665 870.413 77.4519 872.546 78.0652C875.36 78.8745 878.173 77.0225 880.52 75.2692C884.346 72.4052 888.173 69.5412 892 66.6772C894.306 64.9545 896.746 63.0358 897.546 60.2718C898.44 57.1092 896.893 53.7439 894.866 51.1599C891.053 46.3319 885.186 42.9812 879.04 42.9572C873.08 42.9345 865.253 46.9559 864.026 53.3265C862.8 59.7625 864.92 67.8718 867.946 73.5132Z" fill="#F3E2C5"/>
<path d="M898.253 142.216C900.613 146.34 906.266 148.444 910.506 146.305C913.68 144.705 915.56 141.141 915.773 137.593C915.986 133.841 914.386 129.912 911.28 127.795C901.72 121.271 893.453 133.811 898.253 142.216Z" fill="#2D7B5A"/>
<path d="M758.76 163.545C761.693 168.025 768.84 170.245 774.266 167.84C778.32 166.043 780.773 162.113 781.08 158.227C781.413 154.117 779.427 149.84 775.52 147.568C763.467 140.568 752.786 154.417 758.76 163.545Z" fill="#834545"/>
<path d="M1004.33 262.467C1007.83 267.801 1016.35 270.444 1022.81 267.581C1027.64 265.44 1030.56 260.76 1030.93 256.132C1031.33 251.236 1028.96 246.141 1024.29 243.436C1009.95 235.1 997.226 251.593 1004.33 262.467Z" fill="#834545"/>
<path d="M917.72 209.153C922.386 210.013 927.653 207.049 928.746 202.429C929.573 198.972 928.066 195.231 925.493 192.784C922.773 190.196 918.72 188.892 915.106 189.897C903.946 192.995 908.2 207.399 917.72 209.153Z" fill="#ECDB4A"/>
<path d="M999.053 294.461C1003.73 295.321 1008.99 292.357 1010.09 287.737C1010.91 284.28 1009.4 280.539 1006.83 278.092C1004.11 275.504 1000.07 274.2 996.44 275.207C985.293 278.303 989.533 292.707 999.053 294.461Z" fill="#ECDB4A"/>
<path d="M852.453 96.0092C857.12 96.8705 862.373 93.9052 863.48 89.2852C864.306 85.8279 862.8 82.0878 860.226 79.6398C857.493 77.0518 853.453 75.7492 849.84 76.7546C838.68 79.8519 842.933 94.2558 852.453 96.0092Z" fill="#ECDB4A"/>
<path d="M998.76 195.808C998.813 194.968 998.84 194.095 999.213 193.343C999.6 192.591 1000.45 192 1001.27 192.213C1002.57 192.556 1002.64 194.368 1002.4 195.695C1000.91 203.667 998.027 211.376 993.92 218.371C992.813 220.265 989.827 222.044 989.827 218.819C989.827 217.313 993.6 213.3 994.373 211.784C996.92 206.837 998.44 201.364 998.76 195.808Z" fill="#73CA54"/>
<path d="M977.933 227.837C977.386 231.861 979.12 236.185 982.466 238.487C985.813 240.787 990.653 240.791 993.853 238.277C996.146 236.468 997.44 233.631 998.04 230.767C998.653 227.849 998.626 224.725 997.466 221.976C992.573 210.331 979.2 218.513 977.933 227.837Z" fill="#2D7B5A"/>
<path d="M1000.63 217.989C1002.25 223.285 1006.27 228.208 1011.71 229.275C1012.61 229.451 1011.96 219.028 1011.79 218.127C1010.99 214.165 1009.33 210.365 1006.97 207.088C1005.2 204.632 1002.24 204.091 1001.56 200.655C1001.47 200.215 1001.41 199.744 1001.15 199.384C1000.88 199.024 1000.29 198.852 999.973 199.173C999.84 199.317 999.773 199.523 999.733 199.717C998.213 205.979 998.747 211.872 1000.63 217.989Z" fill="#73CA54"/>
<path d="M987.627 211.832C982.88 214.676 976.586 215.639 971.84 212.791C971.053 212.319 978.506 205.008 979.24 204.46C982.493 202.049 986.253 200.332 990.213 199.48C993.173 198.843 995.733 200.424 998.546 198.332C998.906 198.063 999.253 197.749 999.693 197.663C1000.15 197.575 1000.69 197.839 1000.71 198.288C1000.72 198.489 1000.61 198.677 1000.52 198.855C997.453 204.52 993.12 208.545 987.627 211.832Z" fill="#73CA54"/>
<path d="M741.853 131.413C741.16 131.953 740.36 132.759 739.6 133.719C739.573 133.315 739.533 132.908 739.48 132.499C741.133 127.403 743.413 122.513 746.253 117.97C750.96 118.512 756.507 113.085 758.693 109.729C762.227 104.3 763.307 97.6292 763.533 91.1546C759.32 92.1639 755.107 93.3545 751.32 95.4719C747.547 97.5905 744.213 100.733 742.587 104.745C741.467 107.493 740.853 113.423 743.173 116.321C742.853 116.815 742.573 117.333 742.306 117.851C740.693 120.952 739.293 124.161 738.106 127.445C737.6 126.164 737.04 125.016 736.493 124.133C733.12 118.607 727.56 114.769 721.8 111.779C720.907 116.015 720.173 120.336 720.453 124.656C720.747 128.975 722.146 133.339 725.08 136.532C726.84 138.46 731 141.104 734.44 141.124C733.826 144.537 733.427 147.987 733.253 151.447C733.08 154.993 731.893 163.024 733.787 166.245C736.333 170.58 736.773 161.949 736.56 159.96C735.947 154.328 736.106 148.624 736.973 143.027C737.133 143.36 737.346 143.677 737.613 143.972C741.053 147.82 749.466 145.736 753.306 143.787C759.08 140.856 763.347 135.617 766.787 130.127C762.64 128.893 758.387 127.813 754.067 127.757C749.733 127.703 745.267 128.753 741.853 131.413Z" fill="#73CA54"/>
<path d="M825.653 57.5399C826.307 58.1305 827.04 58.9932 827.733 60.0079C827.787 59.6066 827.853 59.2052 827.946 58.8026C826.68 53.5946 824.787 48.5466 822.293 43.8026C817.56 43.9879 812.44 38.1572 810.506 34.6452C807.386 28.9639 806.826 22.2319 807.08 15.7573C811.213 17.0826 815.32 18.5879 818.933 20.9865C822.533 23.3825 825.626 26.7693 826.946 30.8933C827.853 33.7159 828.013 39.6759 825.48 42.3919C825.76 42.9066 826 43.4452 826.227 43.9812C827.6 47.1972 828.76 50.5013 829.693 53.8653C830.293 52.6266 830.946 51.5239 831.546 50.6852C835.333 45.4292 841.173 42.0239 847.133 39.4759C847.707 43.7679 848.12 48.1319 847.506 52.4172C846.893 56.7025 845.16 60.9479 842 63.9119C840.093 65.6999 835.747 68.0226 832.32 67.7826C832.667 71.2319 832.8 74.7026 832.72 78.1666C832.627 81.7159 833.2 89.8119 831.067 92.8812C828.2 97.0119 828.413 88.3719 828.773 86.4052C829.813 80.8346 830.08 75.1359 829.653 69.4879C829.453 69.8079 829.226 70.1092 828.946 70.3839C825.226 73.9599 816.986 71.2465 813.306 69.0119C807.76 65.6532 803.907 60.1079 800.893 54.3719C805.12 53.4572 809.44 52.6999 813.76 52.9719C818.08 53.2439 822.453 54.6279 825.653 57.5399Z" fill="#73CA54"/>
<path d="M965.373 265.761C974.4 270.451 985.6 270.731 994.853 266.497C996.44 265.772 998.173 264.607 998.227 262.863C998.253 261.576 997.28 260.441 996.133 259.851C994.987 259.26 993.68 259.091 992.427 258.851C981.747 256.828 972.453 248.723 968.987 238.428C967.92 235.283 967.12 231.615 964.253 229.941C958 226.289 950.2 234.353 948.44 239.863C946.533 245.792 951.773 253.555 955.4 257.803C958.187 261.051 961.573 263.789 965.373 265.761Z" fill="#2C9660"/>
<path d="M945.867 223.892C945.64 223.208 945.467 222.472 945.627 221.768C945.787 221.064 946.373 220.413 947.093 220.396C947.947 220.379 948.56 221.167 949.027 221.875C950.32 223.815 952.653 229.556 954.84 230.3C955.733 230.605 956.8 230.369 957.48 229.712C957.813 229.393 958.093 228.968 958.546 228.864C959.253 228.699 959.867 229.521 959.8 230.245C959.72 230.968 959.213 231.559 958.72 232.097C959.4 231.299 960.84 231.477 961.427 232.348C962 233.219 961.733 234.495 960.946 235.184C960.16 235.872 958.973 236.007 957.987 235.681C958.693 236.552 958.68 237.924 957.96 238.781C957.24 239.64 955.893 239.889 954.906 239.348C953.933 238.805 953.426 237.529 953.773 236.464C953.253 237.156 952.733 237.861 952.04 238.355C951.333 238.849 950.4 239.107 949.6 238.807C948.8 238.507 948.24 237.536 948.573 236.745C948.933 235.901 950 235.663 950.706 235.075C953.613 232.649 946.72 226.408 945.867 223.892Z" fill="#2D7B5A"/>
<path d="M874.04 281.355C877.293 284.673 880.547 287.993 883.8 291.312C885.133 292.671 886.493 294.049 888.147 294.985C893.267 297.88 897.533 294.056 899.733 289.665C902.747 283.655 904.893 276.957 908.8 271.444C916.147 261.059 919.667 248.363 923.893 236.525C924.32 235.313 924.733 233.908 924.08 232.804C923.627 232.055 922.8 231.645 922 231.291C917.773 229.409 913.227 227.525 908.84 226.176C901.52 223.932 894.28 221.471 886.933 219.317C871.04 214.66 854.52 210.637 837.853 211.852C835.373 212.033 832.493 212.564 831.32 214.768C830.187 216.884 831.213 219.467 832.28 221.612C839.507 236.017 848.453 249.86 858.027 262.8C861.653 267.692 865.213 272.359 869.467 276.693C870.987 278.247 872.507 279.801 874.04 281.355Z" fill="#FABD50"/>
<path d="M910.653 247.239C906.4 260.547 899.933 273.043 891.626 284.064C889.226 287.237 886.56 290.612 886.506 294.687C886.466 297.524 887.826 300.403 890.053 302.204C892.28 304.007 895.32 304.689 897.986 303.985C902.36 302.839 905 298.58 907.253 294.643C916.6 278.271 926.04 261.708 931.32 243.424C932.6 238.964 933.546 232.92 929.853 229.161C925.306 224.531 919.04 226.211 916.16 231.097C913.28 236.008 912.386 241.837 910.653 247.239Z" fill="#F7913B"/>
<path d="M879.027 238.633C882.747 240.032 887.387 238.133 889.067 234.528C889.667 233.24 889.906 231.771 889.64 230.376C889.24 228.256 887.706 226.503 885.946 225.251C883.973 223.849 881.547 222.929 879.16 223.287C871.093 224.493 872.733 236.268 879.027 238.633Z" fill="#B64E4F"/>
<path d="M846.173 232.78C848.773 235.801 853.773 236.364 856.987 233.999C858.133 233.152 859.053 231.977 859.48 230.621C860.146 228.561 859.64 226.283 858.707 224.335C857.64 222.155 855.947 220.175 853.667 219.34C845.987 216.517 841.773 227.672 846.173 232.78Z" fill="#D43644"/>
<path d="M878.56 269.451C881.16 272.472 886.16 273.035 889.36 270.668C890.507 269.823 891.427 268.647 891.867 267.292C892.533 265.231 892.026 262.952 891.08 261.004C890.026 258.825 888.333 256.844 886.053 256.009C878.373 253.188 874.16 264.341 878.56 269.451Z" fill="#D43644"/>
<path d="M875.227 255.696C877.16 255.719 878.893 254.041 879.16 252.125C879.44 250.209 878.4 248.237 876.8 247.148C875.2 246.057 873.133 245.792 871.24 246.164C869.8 246.445 868.373 247.123 867.52 248.32C864.893 252.035 872.107 255.661 875.227 255.696Z" fill="#F1CBA4"/>
<path d="M859.48 251.393C859.893 254.307 861.506 257.031 863.866 258.797C864.72 259.441 865.693 259.971 866.76 260.113C867.826 260.257 868.986 259.968 869.706 259.181C870.826 257.977 870.653 256.08 870.2 254.497C869.76 252.915 869.12 251.26 869.573 249.679C870.04 247.997 871.64 246.828 872.187 245.169C873.987 239.776 867.093 238.867 863.746 240.656C860.16 242.577 858.92 247.563 859.48 251.393Z" fill="#F3E2C5"/>
<path d="M900.293 240.136C899.36 238.012 898.013 236.076 896.546 233.965C896.026 233.221 895.52 232.421 895.4 231.524C895.266 230.625 895.6 229.603 896.4 229.171C897.186 228.745 898.2 229.012 898.893 229.577C899.586 230.141 900.04 230.951 900.453 231.739C902.773 236.017 905.346 238.539 905.8 243.479C905.986 245.349 906.466 251.459 902.866 249.648C901.72 249.067 901.666 247.475 901.64 246.181C901.6 243.884 901.093 241.943 900.293 240.136Z" fill="#53A16B"/>
<path d="M864.387 230.535C864.293 231.485 864.093 232.441 864.213 233.389C864.333 234.337 864.893 235.309 865.813 235.577C866.693 235.835 867.667 235.36 868.227 234.635C868.773 233.911 869 232.984 869.147 232.08C869.747 228.121 868.933 223.959 866.853 220.531C866.427 219.821 865.933 219.127 865.24 218.671C862.64 216.959 861.533 219.513 862.107 221.556C863 224.786 864.773 226.899 864.387 230.535Z" fill="#53A16B"/>
<path d="M852.973 240.183C854.427 238.569 856.68 238.013 857.84 241.325C858.533 243.321 856.787 245.747 854.667 245.713C850.653 245.649 851.227 242.139 852.973 240.183Z" fill="#FCD45E"/>
<path d="M891.213 246.708C892.653 245.095 894.907 244.54 896.067 247.85C896.773 249.848 895.013 252.273 892.893 252.239C888.893 252.175 889.453 248.664 891.213 246.708Z" fill="#FCD45E"/>
<path d="M884.773 277.241C886.213 275.627 888.466 275.072 889.626 278.383C890.32 280.38 888.573 282.805 886.453 282.772C882.44 282.707 883.013 279.196 884.773 277.241Z" fill="#FCD45E"/>
<path d="M805.96 298.324C805.387 302.587 805.8 306.989 807.413 311.551C810.386 319.977 817.306 326.924 826.546 327.608C831.653 327.985 836.813 326.403 841.067 323.551C848.013 318.892 852.507 310.768 852.76 302.408C853.013 294.047 849.013 285.667 842.36 280.597C837.307 276.74 830.693 274.801 824.427 275.875C819.213 276.767 814.333 279.845 811.453 284.307C808.56 288.82 806.627 293.481 805.96 298.324Z" fill="#D43644"/>
<path d="M806.733 283.736C806.24 284.529 806.666 285.569 807.226 286.317C807.906 287.236 808.786 288.005 809.773 288.579C810.426 288.955 812.266 289.253 812.413 290.085C812.48 290.489 812.32 290.891 812.187 291.281C811.907 292.184 811.813 293.144 811.906 294.085C811.973 294.657 812.186 295.317 812.733 295.48C813.12 295.592 813.533 295.408 813.8 295.112C814.066 294.817 814.2 294.428 814.293 294.044C814.44 293.432 814.506 292.801 814.493 292.171C814.48 291.749 814.466 291.245 814.813 291C815.146 290.763 815.626 290.933 815.893 291.248C816.146 291.563 816.24 291.976 816.36 292.368C816.52 292.952 816.76 293.529 817.16 293.987C818.013 294.969 819.36 294.875 820.266 293.999C820.813 293.485 821.013 292.441 820.56 291.825C819.933 290.996 818.946 290.465 818.44 289.556C818.346 289.361 818.28 289.072 818.48 288.96C818.626 288.872 818.813 288.968 818.96 289.057C819.346 289.297 819.773 289.515 820.24 289.532C820.853 289.556 821.72 288.947 822.04 288.435C822.506 287.708 822.226 286.652 821.533 286.144C820.84 285.636 819.84 285.64 819.08 286.029C818.88 286.127 818.693 286.248 818.48 286.292C818.28 286.336 818.026 286.283 817.906 286.099C817.8 285.919 817.867 285.675 817.987 285.508C818.12 285.341 818.306 285.229 818.48 285.104C819.133 284.621 819.586 283.881 819.733 283.08C819.826 282.529 819.693 281.817 819.053 281.719C818.56 281.644 817.946 282.055 817.533 282.291C816.653 282.803 816.053 284.039 815.133 284.395C814.093 284.793 813.08 284.341 812.12 283.995C810.56 283.427 807.973 281.728 806.733 283.736Z" fill="#73CA54"/>
<path d="M766.773 257.888C764.24 260.82 761.693 263.819 760 267.305C758.293 270.791 757.493 274.868 758.6 278.588C759.693 282.308 762.987 285.5 766.853 285.735C770.867 285.977 774.373 283.249 777.387 280.6C788.147 271.149 798.106 260.764 806.88 249.444C810.6 244.637 814.307 238.872 813.093 232.911C811.827 226.66 803.68 221.253 798.067 225.535C790.747 231.123 784.28 238.584 778.027 245.309C774.2 249.431 770.453 253.633 766.773 257.888Z" fill="#A4373C"/>
<path d="M761.307 275.713C761.813 277.895 763.2 279.923 765.213 280.913C767.227 281.907 769.68 281.767 771.76 280.884C775.093 279.463 777.533 276.037 777.56 272.416C777.6 268.795 775.067 265.236 771.573 264.277C764.773 262.411 759.893 269.703 761.307 275.713Z" fill="#B64E4F"/>
<path d="M771.853 353.871C773.56 355.265 775.706 356.739 777.8 356.041C779.52 355.475 780.453 353.683 781.2 352.043C786.333 340.731 790.64 329.041 794.066 317.1C794.773 314.656 795.426 311.972 794.413 309.637C792.84 305.969 788.146 305.039 784.16 304.724C767.933 303.448 751.573 304.148 735.48 306.547C733.28 306.875 730.933 307.3 729.293 308.811C724.906 312.852 730.253 316.988 732.987 319.6C737.147 323.577 741.36 327.5 745.64 331.365C754.173 339.097 762.92 346.603 771.853 353.871Z" fill="#FBC434"/>
<path d="M774.72 343.671C778.12 342.463 780.52 338.883 780.333 335.283C779.96 327.773 769.493 324.167 765.2 330.725C761.16 336.885 767.427 346.264 774.72 343.671Z" fill="#E8A22A"/>
<path d="M766.173 322.267C768.533 321.431 770.187 318.955 770.067 316.463C769.8 311.265 762.56 308.769 759.587 313.308C756.8 317.572 761.133 324.061 766.173 322.267Z" fill="#E8A22A"/>
<path d="M747.053 321.733C748.893 321.079 750.187 319.14 750.093 317.191C749.893 313.124 744.227 311.171 741.893 314.723C739.72 318.059 743.107 323.137 747.053 321.733Z" fill="#E8A22A"/>
<path d="M713.627 296.891C713.693 298.671 713.813 300.616 715.027 301.928C716.48 303.512 718.92 303.568 721.066 303.48C722.88 303.407 724.853 303.243 726.173 301.992C727.72 300.516 727.773 298.08 727.506 295.956C727.213 293.595 726.653 291.267 725.84 289.028C725.146 287.1 724.24 285.195 722.773 283.771C721.293 282.347 719.173 281.473 717.173 281.923C711.293 283.245 713.48 292.893 713.627 296.891Z" fill="#F1CBA4"/>
<path d="M700.92 284.508C701 286.724 701.4 289.131 703.04 290.62C705.213 292.587 708.56 292.168 711.44 291.628C716.133 290.744 720.84 289.861 725.533 288.977C728.36 288.445 731.4 287.801 733.32 285.667C735.533 283.227 735.627 279.524 734.933 276.307C733.653 270.299 729.853 264.701 724.347 261.972C719.013 259.323 710.213 259.481 706.307 264.664C702.373 269.9 700.693 278.112 700.92 284.508Z" fill="#F3E2C5"/>
<path d="M782.88 217.013C784.373 217.997 786.027 219.024 787.787 218.805C789.933 218.542 791.387 216.589 792.573 214.789C793.56 213.272 794.587 211.566 794.333 209.77C794.027 207.65 792.08 206.192 790.187 205.175C788.093 204.044 785.88 203.145 783.587 202.5C781.613 201.944 779.533 201.576 777.52 201.947C775.507 202.317 773.56 203.541 772.76 205.428C770.427 210.976 779.547 214.804 782.88 217.013Z" fill="#F1CBA4"/>
<path d="M765.427 220.149C767.267 221.373 769.467 222.448 771.627 221.977C774.493 221.357 776.093 218.389 777.333 215.732C779.347 211.396 781.36 207.06 783.373 202.723C784.573 200.115 785.813 197.268 785.2 194.46C784.507 191.245 781.547 189.017 778.52 187.707C772.893 185.259 766.133 185.091 760.706 187.983C755.44 190.791 750.453 198.044 752.413 204.231C754.373 210.481 760.093 216.615 765.427 220.149Z" fill="#F3E2C5"/>
<path d="M824.68 266.272C828.707 268.787 834.693 267.957 837.413 264.064C839.44 261.151 839.413 257.117 837.92 253.896C836.333 250.488 833.053 247.793 829.307 247.4C817.8 246.188 816.467 261.148 824.68 266.272Z" fill="#2D7B5A"/>
<path d="M711.973 351.185C716.68 353.74 724.027 352.303 727.653 347.616C730.373 344.111 730.667 339.489 729.107 335.917C727.453 332.141 723.667 329.319 719.147 329.172C705.227 328.723 702.387 345.98 711.973 351.185Z" fill="#834545"/>
<path d="M975.093 321.855C980.706 324.896 989.453 323.184 993.786 317.603C997.013 313.428 997.373 307.924 995.506 303.671C993.533 299.172 989.04 295.809 983.653 295.636C967.053 295.1 963.68 315.655 975.093 321.855Z" fill="#834545"/>
<path d="M873.56 315.979C878.08 314.521 881.293 309.418 880.08 304.829C879.16 301.394 876.066 298.815 872.64 297.881C869.013 296.895 864.84 297.664 862.12 300.267C853.773 308.28 864.347 318.947 873.56 315.979Z" fill="#ECDB4A"/>
<path d="M985.613 352.528C990.133 351.072 993.36 345.971 992.133 341.379C991.226 337.945 988.12 335.364 984.693 334.432C981.066 333.445 976.893 334.215 974.186 336.816C965.826 344.831 976.4 355.499 985.613 352.528Z" fill="#ECDB4A"/>
<path d="M762.44 247.303C766.973 245.845 770.187 240.744 768.973 236.153C768.053 232.719 764.96 230.139 761.533 229.205C757.907 228.22 753.72 228.988 751.013 231.591C742.667 239.604 753.227 250.272 762.44 247.303Z" fill="#ECDB4A"/>
<path d="M938.587 265.807C938.227 265.044 937.84 264.263 937.813 263.42C937.8 262.579 938.266 261.655 939.08 261.457C940.386 261.14 941.32 262.699 941.733 263.984C944.2 271.709 945.32 279.864 945.013 287.969C944.933 290.163 943.16 293.141 941.627 290.303C940.92 288.977 942.333 283.656 942.293 281.952C942.2 276.391 940.947 270.849 938.587 265.807Z" fill="#73CA54"/>
<path d="M935.427 303.883C936.853 307.685 940.44 310.671 944.467 311.109C948.507 311.548 952.773 309.256 954.387 305.531C955.56 302.847 955.347 299.737 954.52 296.931C953.68 294.069 952.173 291.332 949.853 289.46C940.027 281.527 932.133 295.072 935.427 303.883Z" fill="#2D7B5A"/>
<path d="M950.733 284.456C954.68 288.348 960.56 290.775 965.853 289.136C966.72 288.865 961.213 279.993 960.627 279.285C958.053 276.173 954.8 273.611 951.16 271.847C948.44 270.524 945.573 271.45 943.333 268.75C943.053 268.405 942.787 268.016 942.373 267.827C941.973 267.639 941.373 267.763 941.253 268.195C941.187 268.389 941.24 268.595 941.293 268.789C942.92 275.021 946.187 279.96 950.733 284.456Z" fill="#73CA54"/>
<path d="M936.373 285.193C933.547 289.952 928.467 293.779 922.933 293.525C922.013 293.483 925.107 283.511 925.507 282.677C927.213 279.017 929.72 275.719 932.8 273.096C935.093 271.131 938.107 271.308 939.587 268.133C939.773 267.725 939.947 267.281 940.293 266.996C940.64 266.711 941.24 266.681 941.467 267.068C941.573 267.241 941.573 267.453 941.573 267.655C941.56 274.096 939.653 279.697 936.373 285.193Z" fill="#73CA54"/>
<path d="M681.853 330.908C681.493 331.712 681.187 332.797 680.96 334.004C680.747 333.661 680.52 333.324 680.267 332.991C679.32 327.719 679 322.333 679.346 316.988C683.76 315.232 686.067 307.825 686.4 303.833C686.933 297.377 684.72 290.995 681.853 285.184C678.627 288.069 675.48 291.117 673.146 294.773C670.826 298.428 669.387 302.777 669.853 307.081C670.173 310.028 672.44 315.543 675.867 316.995C675.813 317.577 675.813 318.169 675.827 318.751C675.88 322.245 676.16 325.733 676.667 329.191C675.627 328.301 674.573 327.559 673.68 327.037C668.093 323.775 661.373 323.032 654.893 323.125C656.107 327.28 657.506 331.435 659.813 335.1C662.12 338.767 665.413 341.944 669.507 343.369C671.973 344.231 676.893 344.585 679.933 342.973C681.013 346.267 682.293 349.493 683.787 352.624C685.307 355.829 688.067 363.461 691.267 365.401C695.56 368.012 691.867 360.2 690.72 358.552C687.52 353.884 684.96 348.784 683.067 343.447C683.36 343.661 683.693 343.844 684.067 343.979C688.92 345.735 695.347 339.912 697.8 336.373C701.507 331.053 702.773 324.417 703.2 317.952C698.96 318.835 694.707 319.897 690.867 321.901C687.027 323.905 683.6 326.945 681.853 330.908Z" fill="#73CA54"/>
<path d="M720.613 226.133C721.467 226.345 722.52 226.757 723.613 227.324C723.467 226.944 723.347 226.556 723.227 226.159C719.653 222.176 715.587 218.631 711.147 215.635C707.053 218.043 699.787 215.336 696.427 213.157C690.987 209.633 687.293 203.973 684.453 198.149C688.72 197.361 693.053 196.736 697.36 197.139C701.68 197.54 706 199.056 709.12 202.061C711.253 204.119 714.227 209.287 713.28 212.879C713.773 213.199 714.24 213.56 714.693 213.923C717.427 216.104 720 218.468 722.427 220.984C722.373 219.609 722.427 218.329 722.56 217.304C723.4 210.88 726.92 205.115 730.96 200.048C733.507 203.553 735.933 207.201 737.427 211.267C738.92 215.332 739.4 219.889 738.027 223.995C737.2 226.472 734.467 230.58 731.333 231.995C733.28 234.865 735.053 237.856 736.613 240.947C738.213 244.115 742.56 250.973 742.133 254.684C741.573 259.678 737.667 251.973 737.053 250.068C735.32 244.672 732.853 239.527 729.8 234.761C729.787 235.133 729.72 235.506 729.6 235.885C728.013 240.797 719.48 242.311 715.173 242.091C708.707 241.76 702.68 238.708 697.307 235.085C700.6 232.274 704.04 229.56 707.973 227.752C711.907 225.942 716.413 225.091 720.613 226.133Z" fill="#73CA54"/>
<path d="M942.346 343.232C952.52 343.079 962.52 338.016 968.653 329.9C969.706 328.509 970.68 326.661 969.893 325.105C969.32 323.956 967.92 323.417 966.64 323.44C965.346 323.463 964.12 323.933 962.893 324.321C952.533 327.6 940.506 324.873 932.573 317.451C930.146 315.183 927.706 312.335 924.386 312.22C917.146 311.969 914.106 322.767 915.16 328.457C916.293 334.581 924.586 338.929 929.8 340.947C933.786 342.489 938.066 343.296 942.346 343.232Z" fill="#2C9660"/>
<path d="M905.333 315.612C904.8 315.119 904.293 314.555 904.107 313.859C903.907 313.163 904.12 312.309 904.747 311.953C905.493 311.533 906.4 311.936 907.16 312.336C909.213 313.435 913.987 317.383 916.267 316.999C917.2 316.841 918.027 316.132 918.307 315.229C918.453 314.792 918.493 314.284 918.84 313.98C919.387 313.5 920.32 313.932 920.6 314.603C920.88 315.275 920.707 316.037 920.533 316.743C920.747 315.719 922.107 315.193 923.027 315.683C923.96 316.173 924.32 317.425 923.947 318.405C923.587 319.387 922.613 320.063 921.587 320.248C922.613 320.681 923.253 321.895 923.027 322.991C922.8 324.088 921.733 324.948 920.613 324.935C919.493 324.921 918.44 324.037 918.24 322.936C918.12 323.787 918 324.653 917.613 325.421C917.227 326.191 916.533 326.856 915.68 326.973C914.84 327.092 913.88 326.501 913.8 325.647C913.72 324.733 914.547 324.017 914.88 323.167C916.293 319.653 907.267 317.424 905.333 315.612Z" fill="#2D7B5A"/>
<path d="M869.84 401.405C874.28 402.76 878.72 404.116 883.173 405.472C885 406.028 886.84 406.587 888.747 406.615C894.64 406.701 896.547 401.305 896.373 396.396C896.133 389.676 894.827 382.765 895.613 376.059C897.08 363.421 894.093 350.593 892.133 338.179C891.933 336.908 891.627 335.473 890.52 334.819C889.76 334.376 888.84 334.417 887.96 334.488C883.347 334.861 878.467 335.38 873.96 336.301C866.467 337.832 858.92 339.141 851.44 340.769C835.267 344.288 818.84 348.671 804.787 357.713C802.693 359.065 800.427 360.909 800.44 363.407C800.467 365.805 802.6 367.584 804.573 368.952C817.813 378.139 832.293 386.007 846.893 392.78C852.427 395.341 857.787 397.732 863.587 399.501C865.667 400.136 867.747 400.771 869.84 401.405Z" fill="#FABD50"/>
<path d="M885.653 353.917C888.28 367.641 888.587 381.707 886.573 395.364C885.987 399.296 885.267 403.536 887.16 407.139C888.48 409.648 891.053 411.527 893.88 412.043C896.693 412.559 899.693 411.701 901.693 409.804C904.987 406.707 905.267 401.696 905.36 397.164C905.72 378.313 906.08 359.257 901.96 340.677C900.947 336.144 898.88 330.389 893.84 328.857C887.64 326.969 882.933 331.445 882.747 337.112C882.56 342.805 884.573 348.349 885.653 353.917Z" fill="#F7913B"/>
<path d="M853.76 361.511C857.693 360.957 860.867 357.067 860.6 353.1C860.507 351.683 860.027 350.276 859.12 349.18C857.747 347.513 855.56 346.707 853.427 346.449C851.027 346.16 848.453 346.519 846.52 347.975C840.013 352.899 847.107 362.448 853.76 361.511Z" fill="#B64E4F"/>
<path d="M822.106 372.105C825.84 373.512 830.506 371.612 832.186 367.999C832.786 366.707 833.026 365.235 832.76 363.836C832.36 361.709 830.826 359.951 829.066 358.692C827.093 357.284 824.653 356.359 822.266 356.713C814.16 357.916 815.8 369.725 822.106 372.105Z" fill="#D43644"/>
<path d="M868.107 388.791C871.827 390.196 876.493 388.297 878.173 384.684C878.773 383.393 879.013 381.919 878.76 380.521C878.347 378.395 876.813 376.636 875.053 375.376C873.08 373.969 870.64 373.044 868.253 373.399C860.16 374.6 861.8 386.412 868.107 388.791Z" fill="#D43644"/>
<path d="M858.587 378.311C860.307 377.404 861.013 375.103 860.333 373.289C859.666 371.476 857.813 370.241 855.88 370.051C853.96 369.861 852.013 370.617 850.52 371.853C849.387 372.791 848.467 374.068 848.293 375.524C847.773 380.043 855.84 379.775 858.587 378.311Z" fill="#F1CBA4"/>
<path d="M842.706 382.076C844.466 384.433 847.186 386.051 850.093 386.475C851.16 386.629 852.266 386.627 853.28 386.244C854.28 385.861 855.16 385.049 855.413 384.011C855.826 382.417 854.76 380.84 853.613 379.663C852.466 378.485 851.106 377.337 850.746 375.736C850.36 374.032 851.2 372.243 850.88 370.524C849.88 364.931 843.386 367.431 841.306 370.605C839.08 374.011 840.386 378.975 842.706 382.076Z" fill="#F3E2C5"/>
<path d="M873.146 352.647C871.306 351.232 869.2 350.173 866.893 349.027C866.08 348.621 865.267 348.157 864.72 347.431C864.173 346.703 863.986 345.647 864.48 344.885C864.96 344.136 865.986 343.881 866.866 344.045C867.746 344.208 868.52 344.707 869.266 345.195C873.346 347.845 876.813 348.828 879.587 352.941C880.64 354.499 883.987 359.631 879.96 359.763C878.667 359.805 877.867 358.431 877.227 357.307C876.08 355.312 874.706 353.851 873.146 352.647Z" fill="#53A16B"/>
<path d="M837.027 361.411C837.4 362.292 837.68 363.229 838.24 364.001C838.8 364.772 839.76 365.36 840.693 365.156C841.587 364.961 842.213 364.081 842.36 363.176C842.493 362.271 842.253 361.352 841.946 360.489C840.573 356.724 837.867 353.465 834.4 351.447C833.693 351.029 832.92 350.657 832.093 350.588C829 350.329 829.24 353.103 830.72 354.624C833.053 357.032 835.627 358.037 837.027 361.411Z" fill="#53A16B"/>
<path d="M831.627 375.344C832.133 373.235 833.84 371.667 836.44 374.02C838.013 375.439 837.64 378.407 835.76 379.391C832.213 381.255 831.027 377.901 831.627 375.344Z" fill="#FCD45E"/>
<path d="M868.32 362.765C868.813 360.656 870.533 359.088 873.133 361.441C874.707 362.861 874.32 365.828 872.453 366.812C868.893 368.677 867.72 365.323 868.32 362.765Z" fill="#FCD45E"/>
<path d="M877.28 392.656C877.786 390.545 879.493 388.979 882.093 391.332C883.666 392.751 883.293 395.719 881.413 396.701C877.866 398.567 876.68 395.213 877.28 392.656Z" fill="#FCD45E"/>
<path d="M818.2 448.9C819.733 452.917 822.2 456.585 825.8 459.82C832.44 465.793 841.853 468.576 850.28 464.753C854.946 462.64 858.72 458.777 861.093 454.237C864.96 446.82 865.013 437.536 861.24 430.077C857.453 422.616 849.933 417.171 841.666 415.907C835.373 414.944 828.64 416.408 823.653 420.355C819.507 423.631 816.693 428.673 816.306 433.964C815.92 439.315 816.453 444.333 818.2 448.9Z" fill="#D43644"/>
<path d="M811.893 435.727C811.84 436.657 812.706 437.364 813.56 437.755C814.6 438.236 815.733 438.492 816.88 438.521C817.626 438.54 819.386 437.917 819.906 438.581C820.173 438.903 820.213 439.332 820.293 439.735C820.48 440.663 820.853 441.553 821.386 442.332C821.72 442.805 822.226 443.28 822.786 443.159C823.173 443.076 823.453 442.713 823.546 442.328C823.626 441.943 823.56 441.537 823.453 441.155C823.293 440.547 823.053 439.96 822.733 439.416C822.52 439.049 822.28 438.615 822.453 438.235C822.64 437.867 823.146 437.781 823.52 437.933C823.906 438.085 824.186 438.407 824.466 438.695C824.893 439.128 825.373 439.524 825.946 439.733C827.173 440.184 828.306 439.457 828.693 438.251C828.92 437.543 828.6 436.527 827.893 436.207C826.946 435.777 825.826 435.785 824.96 435.225C824.773 435.105 824.586 434.877 824.693 434.688C824.786 434.539 825 434.535 825.173 434.543C825.626 434.565 826.106 434.552 826.52 434.348C827.066 434.075 827.533 433.124 827.586 432.517C827.64 431.657 826.88 430.865 826.026 430.753C825.173 430.64 824.306 431.119 823.826 431.828C823.693 432.007 823.6 432.2 823.426 432.341C823.266 432.48 823.013 432.555 822.84 432.447C822.653 432.341 822.586 432.097 822.626 431.889C822.653 431.681 822.76 431.493 822.853 431.301C823.2 430.564 823.24 429.695 822.986 428.924C822.813 428.395 822.346 427.832 821.733 428.057C821.266 428.224 820.92 428.88 820.68 429.283C820.146 430.153 820.213 431.525 819.573 432.283C818.853 433.127 817.746 433.217 816.746 433.371C815.093 433.623 812.013 433.369 811.893 435.727Z" fill="#73CA54"/>
<path d="M764.44 432.167C763.613 435.957 762.813 439.804 762.987 443.679C763.173 447.553 764.413 451.517 767.16 454.256C769.907 456.996 774.333 458.221 777.84 456.575C781.467 454.868 783.253 450.791 784.627 447.023C789.547 433.573 793.32 419.689 795.6 405.551C796.56 399.545 797.053 392.713 793.133 388.06C789.027 383.181 779.293 382.333 776.413 388.779C772.667 397.192 770.56 406.835 768.293 415.735C766.907 421.187 765.627 426.668 764.44 432.167Z" fill="#A4373C"/>
<path d="M768.16 450.436C769.653 452.107 771.84 453.223 774.08 453.129C776.333 453.035 778.427 451.736 779.813 449.971C782.067 447.128 782.56 442.949 780.853 439.755C779.147 436.561 775.227 434.645 771.707 435.476C764.84 437.097 764.053 445.835 768.16 450.436Z" fill="#B64E4F"/>
<path d="M814.853 513.999C817.027 514.403 819.613 514.669 821.12 513.053C822.347 511.737 822.307 509.716 822.173 507.919C821.267 495.528 819.453 483.204 816.747 471.08C816.2 468.597 815.48 465.928 813.48 464.361C810.333 461.899 805.773 463.328 802.12 464.96C787.267 471.608 773.24 480.057 760.253 489.871C758.48 491.215 756.627 492.707 755.92 494.819C754 500.468 760.667 501.541 764.32 502.525C769.88 504.023 775.467 505.447 781.053 506.796C792.253 509.495 803.52 511.897 814.853 513.999Z" fill="#FBC434"/>
<path d="M812.493 503.669C814.893 500.981 815.28 496.693 813.4 493.617C809.48 487.203 798.56 489.051 797.933 496.864C797.333 504.205 807.32 509.439 812.493 503.669Z" fill="#E8A22A"/>
<path d="M794.733 488.971C796.4 487.111 796.667 484.143 795.373 482.015C792.653 477.576 785.093 478.855 784.667 484.261C784.253 489.343 791.16 492.965 794.733 488.971Z" fill="#E8A22A"/>
<path d="M777.693 497.659C779 496.204 779.2 493.881 778.187 492.216C776.067 488.743 770.146 489.743 769.813 493.973C769.493 497.949 774.893 500.784 777.693 497.659Z" fill="#E8A22A"/>
<path d="M736.453 491.859C737.36 493.392 738.4 495.037 740.08 495.612C742.12 496.305 744.293 495.188 746.133 494.08C747.693 493.147 749.347 492.056 749.907 490.329C750.56 488.291 749.44 486.127 748.187 484.391C746.8 482.46 745.187 480.684 743.413 479.104C741.88 477.745 740.173 476.508 738.187 475.964C736.213 475.417 733.933 475.671 732.387 477.023C727.867 480.995 734.413 488.417 736.453 491.859Z" fill="#F1CBA4"/>
<path d="M719.373 487.072C720.493 488.979 722 490.9 724.16 491.421C727 492.111 729.746 490.139 732.013 488.285C735.706 485.26 739.413 482.235 743.12 479.209C745.346 477.389 747.693 475.368 748.373 472.572C749.133 469.373 747.44 466.079 745.306 463.584C741.293 458.923 735.28 455.827 729.146 456.067C723.186 456.3 715.533 460.653 714.586 467.071C713.64 473.555 716.106 481.565 719.373 487.072Z" fill="#F3E2C5"/>
<path d="M759 388.571C760.773 388.723 762.72 388.832 764.173 387.793C765.92 386.539 766.267 384.124 766.44 381.977C766.587 380.171 766.667 378.187 765.573 376.731C764.307 375.013 761.893 374.668 759.747 374.677C757.373 374.688 754.987 374.961 752.667 375.491C750.667 375.948 748.667 376.62 747.08 377.911C745.493 379.2 744.36 381.207 744.573 383.245C745.173 389.236 755.013 388.228 759 388.571Z" fill="#F1CBA4"/>
<path d="M745.173 399.685C747.386 399.875 749.826 399.768 751.493 398.317C753.706 396.404 753.706 393.028 753.506 390.105C753.2 385.335 752.893 380.564 752.587 375.793C752.4 372.923 752.12 369.829 750.24 367.659C748.08 365.175 744.413 364.635 741.146 364.928C735.026 365.479 729.013 368.568 725.626 373.703C722.36 378.688 721.453 387.444 726.12 391.941C730.84 396.485 738.8 399.137 745.173 399.685Z" fill="#F3E2C5"/>
<path d="M819.28 411.8C824.026 412.077 828.88 408.487 829.4 403.765C829.786 400.235 827.826 396.707 824.973 394.596C821.946 392.364 817.773 391.571 814.306 393.015C803.626 397.464 809.613 411.233 819.28 411.8Z" fill="#2D7B5A"/>
<path d="M761 540.316C766.347 540.305 772.12 535.524 773.053 529.671C773.76 525.292 771.813 521.093 768.733 518.707C765.467 516.184 760.8 515.516 756.76 517.552C744.32 523.827 750.08 540.338 761 540.316Z" fill="#834545"/>
<path d="M977.946 388.567C984.32 388.553 991.187 382.859 992.32 375.887C993.16 370.672 990.826 365.672 987.16 362.829C983.266 359.824 977.706 359.028 972.893 361.455C958.08 368.927 964.946 388.592 977.946 388.567Z" fill="#834545"/>
<path d="M885.987 432.032C889.267 428.588 889.653 422.565 886.373 419.12C883.933 416.541 879.973 415.761 876.52 416.584C872.867 417.456 869.56 420.131 868.426 423.713C864.933 434.748 879.32 439.049 885.987 432.032Z" fill="#ECDB4A"/>
<path d="M1001.87 410.46C1005.15 407.016 1005.52 400.992 1002.25 397.547C999.813 394.969 995.853 394.189 992.4 395.012C988.746 395.883 985.44 398.557 984.306 402.14C980.813 413.175 995.2 417.476 1001.87 410.46Z" fill="#ECDB4A"/>
<path d="M755.56 424.948C758.84 421.504 759.226 415.48 755.946 412.035C753.506 409.457 749.546 408.677 746.093 409.5C742.44 410.371 739.133 413.045 738 416.629C734.506 427.663 748.893 431.967 755.56 424.948Z" fill="#ECDB4A"/>
<path d="M919.053 356.848C918.373 356.349 917.667 355.848 917.24 355.12C916.813 354.391 916.786 353.356 917.413 352.791C918.413 351.884 919.96 352.809 920.946 353.741C926.813 359.341 931.693 365.965 935.32 373.221C936.293 375.187 936.16 378.655 933.453 376.895C932.2 376.073 930.893 370.724 930.04 369.243C927.293 364.411 923.533 360.145 919.053 356.848Z" fill="#73CA54"/>
<path d="M934.52 391.784C937.587 394.44 942.16 395.347 945.92 393.799C949.667 392.251 952.32 388.195 951.96 384.149C951.693 381.236 950.013 378.608 947.947 376.537C945.84 374.428 943.213 372.748 940.28 372.215C927.84 369.959 927.4 385.631 934.52 391.784Z" fill="#2D7B5A"/>
<path d="M938.653 367.4C943.973 368.928 950.293 368.245 954.16 364.272C954.8 363.615 945.72 358.464 944.866 358.123C941.106 356.627 937.027 355.935 932.987 356.127C929.96 356.269 927.893 358.456 924.64 357.155C924.226 356.988 923.8 356.776 923.346 356.805C922.906 356.835 922.44 357.229 922.533 357.669C922.573 357.865 922.72 358.023 922.853 358.169C927.28 362.857 932.507 365.635 938.653 367.4Z" fill="#73CA54"/>
<path d="M926.4 374.923C926.187 380.46 923.56 386.251 918.587 388.677C917.76 389.079 915.707 378.841 915.653 377.923C915.4 373.888 916.013 369.795 917.467 366.019C918.547 363.191 921.267 361.907 921.053 358.409C921.013 357.961 920.947 357.492 921.12 357.076C921.28 356.657 921.813 356.343 922.187 356.572C922.36 356.675 922.467 356.86 922.573 357.036C925.64 362.697 926.64 368.528 926.4 374.923Z" fill="#73CA54"/>
<path d="M724.84 536.934C724.92 537.81 725.16 538.917 725.547 540.08C725.2 539.881 724.827 539.696 724.453 539.522C721.093 535.35 718.24 530.775 715.987 525.916C719.013 522.264 717.493 514.656 715.867 510.992C713.253 505.065 708.253 500.524 702.947 496.797C701.493 500.875 700.187 505.06 699.907 509.38C699.613 513.7 700.427 518.211 702.907 521.765C704.6 524.197 709.227 527.953 712.92 527.591C713.16 528.125 713.44 528.645 713.733 529.152C715.453 532.195 717.373 535.117 719.48 537.909C718.133 537.632 716.853 537.479 715.827 537.45C709.347 537.265 703.093 539.831 697.453 543.014C700.507 546.08 703.72 549.057 707.507 551.172C711.28 553.288 715.707 554.495 719.973 553.789C722.547 553.362 727.04 551.32 728.933 548.45C731.467 550.822 734.133 553.04 736.933 555.077C739.813 557.162 745.893 562.536 749.627 562.71C754.64 562.947 747.653 557.86 745.88 556.956C740.813 554.396 736.133 551.144 731.907 547.365C732.28 547.41 732.653 547.41 733.053 547.35C738.147 546.568 741 538.381 741.467 534.096C742.16 527.656 740.107 521.22 737.387 515.341C734.08 518.145 730.853 521.116 728.453 524.712C726.04 528.309 724.48 532.621 724.84 536.934Z" fill="#73CA54"/>
<path d="M708.707 426.393C709.56 426.171 710.68 426.028 711.907 426.005C711.6 425.739 711.307 425.459 711.013 425.163C705.96 423.383 700.693 422.217 695.36 421.715C692.933 425.784 685.253 426.889 681.253 426.585C674.787 426.095 668.84 422.895 663.56 419.141C666.92 416.412 670.427 413.785 674.4 412.073C678.387 410.361 682.907 409.621 687.08 410.767C689.947 411.552 695.027 414.665 695.92 418.269C696.507 418.316 697.08 418.409 697.653 418.511C701.107 419.117 704.493 419.956 707.827 421.005C707.12 419.827 706.547 418.679 706.173 417.713C703.84 411.669 704.173 404.92 705.293 398.539C709.2 400.4 713.08 402.439 716.333 405.295C719.6 408.148 722.213 411.916 722.973 416.177C723.427 418.749 723 423.661 720.92 426.404C724 427.995 726.987 429.775 729.84 431.74C732.76 433.751 739.867 437.695 741.267 441.152C743.173 445.807 736.04 440.917 734.587 439.536C730.493 435.625 725.867 432.289 720.893 429.573C721.053 429.905 721.187 430.263 721.253 430.652C722.227 435.723 715.453 441.139 711.573 443.007C705.733 445.813 698.987 446.021 692.533 445.415C694.067 441.368 695.8 437.339 698.387 433.865C700.973 430.395 704.52 427.489 708.707 426.393Z" fill="#73CA54"/>
<path d="M959.427 423.017C968.293 418.009 974.64 408.78 976.146 398.713C976.4 396.988 976.373 394.899 974.933 393.911C973.88 393.18 972.4 393.375 971.28 394.011C970.16 394.647 969.306 395.649 968.413 396.579C960.893 404.416 949.026 407.783 938.506 405.064C935.293 404.235 931.773 402.905 928.813 404.392C922.333 407.639 924.84 418.573 928.493 423.065C932.413 427.9 941.773 427.744 947.32 427.017C951.56 426.463 955.707 425.121 959.427 423.017Z" fill="#2C9660"/>
<path d="M913.707 416.496C913.013 416.316 912.293 416.061 911.787 415.543C911.293 415.024 911.067 414.176 911.44 413.561C911.893 412.84 912.893 412.753 913.746 412.747C916.066 412.725 922.16 413.904 923.973 412.475C924.72 411.891 925.107 410.873 924.92 409.943C924.84 409.491 924.64 409.024 924.787 408.592C925.04 407.909 926.067 407.841 926.627 408.297C927.2 408.752 927.413 409.504 927.6 410.207C927.293 409.204 928.24 408.093 929.28 408.083C930.333 408.069 931.253 408.992 931.4 410.028C931.547 411.065 931.013 412.125 930.2 412.781C931.307 412.667 932.453 413.425 932.773 414.499C933.107 415.571 932.573 416.836 931.587 417.361C930.6 417.887 929.253 417.612 928.546 416.743C928.853 417.545 929.16 418.367 929.187 419.225C929.227 420.084 928.933 421 928.24 421.511C927.547 422.023 926.426 421.961 925.946 421.248C925.44 420.487 925.827 419.463 925.72 418.552C925.267 414.795 916.28 417.157 913.707 416.496Z" fill="#2D7B5A"/>
<path d="M923.933 506.387C928.493 505.465 933.04 504.544 937.6 503.623C939.467 503.245 941.36 502.859 943.053 501.977C948.267 499.256 947.387 493.6 944.893 489.361C941.493 483.561 937.053 478.109 934.56 471.835C929.853 460.015 921.12 450.152 913.493 440.163C912.707 439.14 911.76 438.025 910.467 437.975C909.6 437.941 908.8 438.419 908.067 438.895C904.187 441.417 900.133 444.195 896.613 447.147C890.746 452.059 884.733 456.797 878.933 461.783C866.373 472.572 854 484.24 845.933 498.871C844.733 501.059 843.613 503.759 844.827 505.947C845.987 508.047 848.707 508.596 851.093 508.863C867.107 510.651 883.587 510.687 899.653 509.701C905.733 509.331 911.587 508.884 917.533 507.681C919.667 507.251 921.8 506.817 923.933 506.387Z" fill="#FABD50"/>
<path d="M915.266 457.091C924.106 467.915 931.066 480.139 935.786 493.116C937.133 496.852 938.52 500.925 941.906 503.193C944.266 504.771 947.413 505.2 950.133 504.315C952.866 503.429 955.093 501.251 955.96 498.625C957.373 494.341 955.24 489.796 953.173 485.767C944.533 469.008 935.773 452.077 923.32 437.689C920.28 434.18 915.72 430.101 910.56 431.148C904.2 432.439 902.2 438.611 904.733 443.684C907.28 448.78 911.68 452.699 915.266 457.091Z" fill="#F7913B"/>
<path d="M890.827 478.931C894.027 476.573 894.96 471.645 892.84 468.277C892.093 467.075 891 466.069 889.68 465.533C887.68 464.72 885.373 465.049 883.373 465.841C881.12 466.727 879.027 468.267 878.027 470.464C874.64 477.889 885.413 482.92 890.827 478.931Z" fill="#B64E4F"/>
<path d="M868.013 503.297C871.973 502.76 875.16 498.876 874.933 494.897C874.84 493.475 874.36 492.061 873.453 490.957C872.093 489.279 869.907 488.461 867.76 488.192C865.36 487.889 862.773 488.235 860.827 489.687C854.28 494.591 861.333 504.203 868.013 503.297Z" fill="#D43644"/>
<path d="M916.413 496.112C920.36 495.576 923.56 491.692 923.32 487.712C923.227 486.291 922.747 484.876 921.853 483.772C920.48 482.093 918.293 481.276 916.146 481.005C913.746 480.704 911.16 481.049 909.227 482.501C902.667 487.407 909.733 497.017 916.413 496.112Z" fill="#D43644"/>
<path d="M903.067 491.415C904.133 489.804 903.667 487.44 902.213 486.165C900.76 484.892 898.533 484.687 896.747 485.435C894.96 486.184 893.613 487.773 892.893 489.569C892.347 490.929 892.133 492.495 892.68 493.857C894.36 498.084 901.333 494.013 903.067 491.415Z" fill="#F1CBA4"/>
<path d="M890.88 502.28C893.547 503.516 896.707 503.645 899.467 502.635C900.48 502.264 901.453 501.735 902.16 500.92C902.853 500.107 903.24 498.976 902.987 497.936C902.587 496.343 900.893 495.463 899.32 494.972C897.747 494.481 896.013 494.115 894.933 492.879C893.787 491.565 893.667 489.591 892.587 488.227C889.027 483.788 884.52 489.069 884.2 492.851C883.853 496.909 887.36 500.653 890.88 502.28Z" fill="#F3E2C5"/>
<path d="M903.667 461.917C901.373 461.545 899.013 461.616 896.453 461.701C895.547 461.732 894.6 461.713 893.773 461.332C892.947 460.951 892.28 460.115 892.347 459.211C892.427 458.317 893.2 457.609 894.053 457.336C894.907 457.061 895.827 457.131 896.72 457.203C901.56 457.596 905.08 456.813 909.467 459.113C911.133 459.984 916.52 462.904 913.053 464.935C911.933 465.587 910.573 464.759 909.467 464.077C907.52 462.864 905.613 462.232 903.667 461.917Z" fill="#53A16B"/>
<path d="M876.053 486.796C876.8 487.397 877.493 488.089 878.36 488.5C879.227 488.911 880.333 488.973 881.067 488.351C881.76 487.753 881.88 486.683 881.587 485.817C881.28 484.953 880.627 484.26 879.947 483.651C876.947 480.985 873.013 479.411 869.013 479.28C868.187 479.252 867.333 479.291 866.573 479.623C863.72 480.868 865.267 483.189 867.28 483.827C870.48 484.836 873.213 484.499 876.053 486.796Z" fill="#53A16B"/>
<path d="M877.933 501.621C877.373 499.528 878.133 497.335 881.533 498.168C883.6 498.672 884.667 501.461 883.493 503.216C881.253 506.547 878.613 504.157 877.933 501.621Z" fill="#FCD45E"/>
<path d="M904.227 473.113C903.667 471.021 904.427 468.827 907.84 469.66C909.893 470.164 910.973 472.953 909.787 474.708C907.547 478.039 904.92 475.649 904.227 473.113Z" fill="#FCD45E"/>
<path d="M926.333 495.147C925.76 493.055 926.52 490.861 929.933 491.695C931.987 492.197 933.066 494.987 931.88 496.744C929.64 500.073 927.013 497.685 926.333 495.147Z" fill="#FCD45E"/>
<path d="M901.093 572.717C904.347 575.525 908.267 577.579 912.96 578.712C921.653 580.807 931.253 578.783 936.853 571.413C939.947 567.335 941.44 562.14 941.36 557.02C941.24 548.656 936.867 540.464 930 535.697C923.12 530.932 913.92 529.717 906.04 532.535C900.053 534.68 894.827 539.168 892.307 545.013C890.227 549.865 890.147 555.638 892.32 560.476C894.533 565.368 897.387 569.529 901.093 572.717Z" fill="#D43644"/>
<path d="M889.266 564.131C889.666 564.972 890.773 565.18 891.706 565.121C892.84 565.05 893.973 564.736 894.987 564.217C895.653 563.877 896.92 562.491 897.693 562.825C898.067 562.988 898.32 563.343 898.573 563.659C899.173 564.389 899.933 564.995 900.773 565.424C901.28 565.685 901.96 565.861 902.387 565.488C902.693 565.232 902.76 564.779 902.666 564.397C902.56 564.016 902.307 563.693 902.027 563.405C901.6 562.947 901.106 562.545 900.573 562.216C900.213 561.996 899.787 561.733 899.76 561.31C899.747 560.904 900.16 560.584 900.56 560.538C900.96 560.493 901.36 560.641 901.746 560.76C902.333 560.938 902.946 561.056 903.546 560.971C904.84 560.784 905.493 559.607 905.253 558.362C905.107 557.635 904.347 556.889 903.587 556.941C902.547 557.012 901.56 557.552 900.533 557.473C900.306 557.457 900.04 557.347 900.053 557.126C900.053 556.953 900.24 556.849 900.387 556.774C900.813 556.576 901.227 556.336 901.493 555.961C901.84 555.459 901.8 554.398 901.546 553.845C901.2 553.061 900.16 552.724 899.346 553.029C898.546 553.337 898.013 554.169 897.92 555.028C897.893 555.241 897.893 555.462 897.813 555.664C897.733 555.864 897.56 556.047 897.346 556.04C897.133 556.034 896.96 555.852 896.893 555.65C896.827 555.45 896.826 555.234 896.813 555.024C896.773 554.21 896.4 553.424 895.8 552.869C895.386 552.486 894.72 552.209 894.28 552.701C893.96 553.068 893.973 553.809 893.946 554.281C893.893 555.297 894.6 556.472 894.4 557.444C894.173 558.528 893.24 559.136 892.427 559.75C891.093 560.752 888.266 561.997 889.266 564.131Z" fill="#73CA54"/>
<path d="M845.826 583.559C846.906 587.285 848.04 591.047 850.04 594.371C852.04 597.696 855.013 600.589 858.733 601.695C862.453 602.798 866.92 601.777 869.226 598.657C871.613 595.429 871.24 590.997 870.666 587.026C868.6 572.856 865.306 558.85 860.586 545.328C858.586 539.584 855.773 533.343 850.106 531.111C844.173 528.772 835.213 532.655 835.746 539.692C836.44 548.877 839.173 558.36 841.413 567.268C842.786 572.725 844.266 578.153 845.826 583.559Z" fill="#A4373C"/>
<path d="M857.8 597.859C859.906 598.617 862.36 598.559 864.293 597.413C866.226 596.26 867.44 594.125 867.826 591.908C868.453 588.34 866.906 584.424 863.893 582.425C860.866 580.426 856.506 580.605 853.8 583.013C848.533 587.703 851.986 595.767 857.8 597.859Z" fill="#B64E4F"/>
<path d="M929.093 631.583C931.2 630.904 933.6 629.909 934.16 627.771C934.613 626.028 933.613 624.268 932.64 622.75C925.96 612.28 918.507 602.303 910.36 592.921C908.68 591.001 906.786 588.991 904.28 588.564C900.346 587.893 897.013 591.321 894.573 594.489C884.666 607.401 876.347 621.504 869.587 636.309C868.667 638.338 867.747 640.529 868.12 642.729C869.12 648.609 875.506 646.381 879.173 645.512C884.786 644.185 890.373 642.784 895.933 641.309C907.066 638.361 918.133 635.117 929.093 631.583Z" fill="#FBC434"/>
<path d="M922.106 623.617C922.933 620.11 921.24 616.152 918.12 614.341C911.626 610.564 902.893 617.38 906.053 624.555C909.026 631.293 920.306 631.148 922.106 623.617Z" fill="#E8A22A"/>
<path d="M899.493 619.125C900.08 616.698 898.906 613.96 896.746 612.705C892.24 610.091 886.2 614.808 888.387 619.773C890.453 624.437 898.253 624.337 899.493 619.125Z" fill="#E8A22A"/>
<path d="M888.627 634.871C889.08 632.972 888.173 630.829 886.48 629.849C882.96 627.803 878.226 631.493 879.946 635.379C881.546 639.028 887.653 638.95 888.627 634.871Z" fill="#E8A22A"/>
<path d="M849.587 649.377C851.12 650.295 852.813 651.248 854.573 650.95C856.693 650.592 858.066 648.577 859.173 646.725C860.093 645.165 861.04 643.417 860.706 641.635C860.306 639.528 858.293 638.159 856.373 637.226C854.226 636.191 851.973 635.391 849.653 634.848C847.653 634.38 845.56 634.104 843.56 634.565C841.573 635.025 839.68 636.333 838.973 638.253C836.88 643.9 846.16 647.319 849.587 649.377Z" fill="#F1CBA4"/>
<path d="M832.28 653.286C834.187 654.428 836.427 655.404 838.56 654.837C841.4 654.09 842.867 651.053 843.987 648.345C845.8 643.922 847.627 639.501 849.44 635.081C850.533 632.42 851.653 629.522 850.907 626.744C850.067 623.564 847.013 621.469 843.933 620.295C838.2 618.098 831.44 618.231 826.147 621.361C821.013 624.4 816.36 631.868 818.573 637.961C820.827 644.119 826.8 649.992 832.28 653.286Z" fill="#F3E2C5"/>
<path d="M820.32 547.788C821.96 547.079 823.72 546.249 824.507 544.647C825.44 542.712 824.6 540.42 823.733 538.45C823 536.792 822.133 535.009 820.48 534.244C818.547 533.341 816.253 534.184 814.373 535.209C812.293 536.349 810.32 537.721 808.533 539.291C807 540.641 805.56 542.185 804.773 544.077C803.987 545.968 803.947 548.268 805.093 549.964C808.48 554.947 816.653 549.38 820.32 547.788Z" fill="#F1CBA4"/>
<path d="M813.44 564.138C815.48 563.256 817.573 562.004 818.36 559.931C819.4 557.193 817.773 554.228 816.227 551.748C813.68 547.697 811.147 543.647 808.6 539.597C807.08 537.161 805.36 534.571 802.667 533.556C799.6 532.396 796.12 533.662 793.373 535.479C788.253 538.873 784.427 544.449 783.907 550.572C783.387 556.514 786.76 564.648 793 566.384C799.32 568.137 807.573 566.688 813.44 564.138Z" fill="#F3E2C5"/>
<path d="M884.4 539.565C888.707 537.555 891.267 532.089 889.48 527.688C888.147 524.395 884.747 522.221 881.227 521.724C877.507 521.197 873.453 522.483 871.093 525.404C863.813 534.397 875.627 543.661 884.4 539.565Z" fill="#2D7B5A"/>
<path d="M894.227 680.338C898.933 677.784 901.72 670.836 899.773 665.237C898.32 661.049 894.6 658.285 890.746 657.652C886.68 656.981 882.253 658.614 879.667 662.326C871.707 673.761 884.64 685.544 894.227 680.338Z" fill="#834545"/>
<path d="M1012.95 443.693C1018.55 440.649 1021.88 432.373 1019.56 425.705C1017.81 420.717 1013.39 417.425 1008.81 416.672C1003.96 415.873 998.693 417.817 995.613 422.241C986.12 435.86 1001.52 449.893 1012.95 443.693Z" fill="#834545"/>
<path d="M952.706 525.649C953.946 521.064 951.426 515.583 946.906 514.105C943.533 513 939.68 514.195 937.026 516.563C934.226 519.067 932.6 522.988 933.306 526.68C935.48 538.048 950.173 534.993 952.706 525.649Z" fill="#ECDB4A"/>
<path d="M834.6 581.424C835.84 576.84 833.306 571.359 828.8 569.881C825.413 568.776 821.573 569.971 818.92 572.338C816.12 574.843 814.48 578.764 815.187 582.456C817.36 593.824 832.066 590.768 834.6 581.424Z" fill="#ECDB4A"/>
<path d="M946.053 443.787C945.213 443.669 944.346 443.569 943.626 443.129C942.906 442.689 942.386 441.795 942.666 441C943.12 439.727 944.933 439.8 946.24 440.156C954.053 442.295 961.506 445.797 968.146 450.46C969.933 451.723 971.466 454.84 968.253 454.576C966.746 454.452 963.053 450.367 961.613 449.465C956.893 446.524 951.56 444.556 946.053 443.787Z" fill="#73CA54"/>
<path d="M976.267 467.169C980.227 468.045 984.68 466.671 987.253 463.524C989.813 460.376 990.213 455.551 987.973 452.164C986.36 449.725 983.64 448.208 980.84 447.371C977.973 446.519 974.867 446.291 972.027 447.216C960.013 451.14 967.08 465.139 976.267 467.169Z" fill="#2D7B5A"/>
<path d="M968.307 443.751C973.72 442.565 978.96 438.959 980.467 433.628C980.72 432.745 970.28 432.531 969.36 432.639C965.347 433.107 961.427 434.439 957.96 436.528C955.373 438.091 954.587 440.999 951.107 441.401C950.667 441.453 950.187 441.468 949.813 441.707C949.427 441.945 949.213 442.515 949.507 442.855C949.64 443.005 949.84 443.077 950.027 443.139C956.147 445.163 962.053 445.123 968.307 443.751Z" fill="#73CA54"/>
<path d="M961.107 456.195C963.56 461.167 964 467.509 960.773 472.012C960.24 472.757 953.56 464.728 953.067 463.947C950.933 460.516 949.533 456.619 949.013 452.611C948.613 449.609 950.4 447.185 948.546 444.212C948.306 443.831 948.027 443.452 947.973 443.005C947.92 442.557 948.226 442.032 948.68 442.051C948.88 442.06 949.067 442.172 949.227 442.281C954.627 445.803 958.28 450.455 961.107 456.195Z" fill="#73CA54"/>
<path d="M794.053 604.973C794.693 604.373 795.613 603.714 796.693 603.113C796.293 603.024 795.893 602.917 795.507 602.795C790.213 603.633 785.027 605.11 780.093 607.203C779.893 611.938 773.653 616.562 770 618.195C764.08 620.835 757.32 620.849 750.893 620.057C752.547 616.059 754.386 612.08 757.08 608.683C759.76 605.286 763.387 602.483 767.6 601.507C770.493 600.838 776.453 601.16 778.946 603.907C779.48 603.671 780.04 603.473 780.587 603.291C783.907 602.189 787.293 601.31 790.72 600.649C789.547 599.952 788.493 599.21 787.707 598.538C782.787 594.332 779.866 588.236 777.813 582.089C782.133 581.868 786.52 581.817 790.746 582.783C794.96 583.747 799.053 585.817 801.746 589.205C803.373 591.25 805.333 595.776 804.813 599.174C808.28 599.11 811.747 599.257 815.2 599.629C818.72 600.009 826.84 600.104 829.72 602.476C833.6 605.669 825.013 604.755 823.08 604.229C817.613 602.738 811.96 602.004 806.293 601.976C806.6 602.192 806.88 602.445 807.133 602.752C810.387 606.755 807.013 614.736 804.48 618.225C800.68 623.472 794.84 626.864 788.867 629.397C788.307 625.105 787.907 620.74 788.533 616.456C789.16 612.172 790.893 607.929 794.053 604.973Z" fill="#73CA54"/>
<path d="M1013.03 482.804C1018.44 474.185 1019.64 463.047 1016.19 453.475C1015.59 451.835 1014.57 450.009 1012.84 449.823C1011.56 449.685 1010.35 450.561 1009.67 451.653C1008.99 452.745 1008.71 454.032 1008.36 455.275C1005.47 465.745 996.627 474.351 986.08 476.959C982.867 477.755 979.147 478.255 977.24 480.975C973.093 486.908 980.48 495.339 985.827 497.556C991.587 499.943 999.747 495.353 1004.28 492.079C1007.75 489.575 1010.76 486.425 1013.03 482.804Z" fill="#2C9660"/>
<path d="M969.706 498.805C969 498.979 968.253 499.093 967.573 498.876C966.88 498.657 966.28 498.019 966.32 497.297C966.373 496.449 967.213 495.899 967.946 495.488C969.986 494.363 975.906 492.507 976.826 490.387C977.2 489.517 977.053 488.441 976.453 487.707C976.173 487.351 975.76 487.036 975.693 486.583C975.586 485.863 976.466 485.313 977.173 485.447C977.893 485.58 978.44 486.137 978.933 486.667C978.2 485.927 978.493 484.505 979.4 483.997C980.32 483.488 981.573 483.863 982.2 484.704C982.813 485.547 982.853 486.732 982.44 487.696C983.373 487.067 984.733 487.192 985.533 487.979C986.333 488.767 986.466 490.132 985.853 491.064C985.226 491.996 983.92 492.395 982.88 491.964C983.533 492.528 984.186 493.104 984.626 493.844C985.053 494.584 985.24 495.529 984.88 496.307C984.506 497.084 983.493 497.563 982.733 497.164C981.92 496.737 981.773 495.653 981.24 494.904C979.066 491.809 972.28 498.164 969.706 498.805Z" fill="#2D7B5A"/>
<path d="M1022.32 575.3C1025.88 572.309 1029.44 569.319 1033 566.328C1034.45 565.103 1035.93 563.857 1037 562.274C1040.28 557.386 1036.79 552.847 1032.57 550.314C1026.81 546.85 1020.31 544.192 1015.11 539.88C1005.31 531.756 992.92 527.281 981.44 522.163C980.266 521.639 978.893 521.116 977.746 521.688C976.96 522.076 976.493 522.877 976.08 523.644C973.88 527.717 971.653 532.096 969.973 536.376C967.173 543.497 964.16 550.536 961.453 557.693C955.6 573.179 950.32 589.348 950.253 606.049C950.24 608.547 950.56 611.456 952.666 612.797C954.68 614.085 957.333 613.264 959.56 612.357C974.48 606.257 988.96 598.395 1002.6 589.836C1007.75 586.6 1012.68 583.405 1017.32 579.501C1018.99 578.1 1020.65 576.7 1022.32 575.3Z" fill="#FABD50"/>
<path d="M991.106 536.173C1004.05 541.441 1016.01 548.84 1026.37 557.974C1029.35 560.605 1032.51 563.522 1036.57 563.891C1039.4 564.146 1042.37 563.014 1044.33 560.932C1046.31 558.852 1047.21 555.871 1046.72 553.149C1045.91 548.71 1041.87 545.741 1038.12 543.197C1022.51 532.621 1006.72 521.949 988.893 515.284C984.547 513.657 978.587 512.259 974.56 515.651C969.587 519.828 970.786 526.207 975.44 529.448C980.12 532.704 985.853 534.035 991.106 536.173Z" fill="#F7913B"/>
<path d="M980.107 567.052C981.787 563.449 980.253 558.676 976.787 556.731C975.547 556.034 974.107 555.68 972.693 555.838C970.547 556.081 968.68 557.473 967.293 559.131C965.747 560.983 964.64 563.338 964.813 565.748C965.4 573.886 977.267 573.144 980.107 567.052Z" fill="#B64E4F"/>
<path d="M971.76 599.361C974.973 597 975.92 592.06 973.8 588.68C973.04 587.472 971.947 586.462 970.627 585.924C968.627 585.105 966.307 585.433 964.293 586.225C962.04 587.11 959.933 588.652 958.933 590.856C955.533 598.298 966.333 603.356 971.76 599.361Z" fill="#D43644"/>
<path d="M1010.8 569.881C1014.01 567.52 1014.96 562.58 1012.84 559.198C1012.08 557.992 1010.99 556.983 1009.67 556.444C1007.67 555.625 1005.35 555.953 1003.33 556.745C1001.08 557.631 998.973 559.172 997.973 561.374C994.573 568.817 1005.37 573.874 1010.8 569.881Z" fill="#D43644"/>
<path d="M996.827 572.149C997 570.222 995.467 568.369 993.573 567.949C991.68 567.528 989.64 568.41 988.427 569.921C987.227 571.433 986.8 573.477 987.027 575.4C987.187 576.857 987.76 578.329 988.893 579.265C992.387 582.171 996.56 575.259 996.827 572.149Z" fill="#F1CBA4"/>
<path d="M991.333 587.524C994.267 587.329 997.107 585.929 999.053 583.717C999.76 582.912 1000.36 581.977 1000.59 580.929C1000.81 579.88 1000.61 578.701 999.88 577.914C998.773 576.705 996.867 576.744 995.253 577.065C993.64 577.385 991.947 577.893 990.4 577.326C988.76 576.726 987.72 575.045 986.107 574.369C980.867 572.173 979.427 578.972 980.96 582.445C982.6 586.173 987.48 587.779 991.333 587.524Z" fill="#F3E2C5"/>
<path d="M983.24 545.965C981.053 546.737 979.013 547.925 976.8 549.233C976.013 549.695 975.173 550.128 974.28 550.188C973.373 550.248 972.373 549.838 972 549.009C971.64 548.192 971.987 547.196 972.6 546.548C973.213 545.898 974.053 545.52 974.88 545.156C979.32 543.181 982.027 540.809 986.987 540.724C988.867 540.692 995 540.674 992.92 544.123C992.253 545.231 990.653 545.153 989.373 545.083C987.066 544.953 985.093 545.308 983.24 545.965Z" fill="#53A16B"/>
<path d="M970.92 581.026C971.853 581.197 972.786 581.474 973.746 581.421C974.706 581.368 975.72 580.889 976.053 579.995C976.373 579.138 975.973 578.137 975.293 577.522C974.613 576.909 973.706 576.613 972.813 576.405C968.92 575.497 964.707 576 961.133 577.803C960.387 578.176 959.653 578.617 959.146 579.272C957.24 581.731 959.707 583.031 961.787 582.622C965.08 581.977 967.32 580.371 970.92 581.026Z" fill="#53A16B"/>
<path d="M979.667 593.143C978.16 591.576 977.786 589.285 981.173 588.385C983.213 587.844 985.493 589.774 985.306 591.881C984.933 595.877 981.48 595.041 979.667 593.143Z" fill="#FCD45E"/>
<path d="M989.093 555.524C987.6 553.957 987.213 551.667 990.6 550.767C992.653 550.224 994.933 552.156 994.733 554.262C994.36 558.259 990.906 557.422 989.093 555.524Z" fill="#FCD45E"/>
<path d="M990.707 680.448C993.44 683.204 996.24 685.965 999.587 687.926C1002.93 689.889 1006.93 691.001 1010.72 690.191C1014.52 689.377 1017.95 686.341 1018.48 682.498C1019.03 678.524 1016.59 674.812 1014.17 671.602C1005.57 660.15 995.973 649.431 985.36 639.816C980.853 635.733 975.387 631.604 969.36 632.356C963.027 633.143 957.013 640.848 960.853 646.769C965.867 654.5 972.8 661.512 979.04 668.262C982.853 672.398 986.747 676.45 990.707 680.448Z" fill="#A4373C"/>
<path d="M951.187 661.259C952.28 659.855 953.44 658.281 953.36 656.502C953.253 654.352 951.427 652.743 949.72 651.429C948.28 650.322 946.653 649.177 944.84 649.293C942.706 649.429 941.106 651.264 939.946 653.065C938.653 655.067 937.6 657.209 936.773 659.444C936.066 661.368 935.546 663.413 935.76 665.45C935.973 667.486 937.04 669.524 938.866 670.461C944.213 673.219 948.733 664.416 951.187 661.259Z" fill="#F1CBA4"/>
<path d="M952.987 678.909C954.347 677.16 955.587 675.057 955.28 672.861C954.88 669.961 952.04 668.132 949.493 666.698C945.32 664.36 941.147 662.021 936.987 659.681C934.467 658.274 931.733 656.82 928.88 657.217C925.627 657.673 923.173 660.452 921.64 663.361C918.76 668.793 918.08 675.519 920.547 681.144C922.947 686.607 929.8 692.137 936.107 690.667C942.493 689.183 949.053 683.957 952.987 678.909Z" fill="#F3E2C5"/>
<path d="M1003.51 623.359C1006.32 619.532 1005.95 613.508 1002.28 610.497C999.533 608.247 995.507 607.965 992.173 609.213C988.667 610.533 985.72 613.6 985.04 617.297C982.96 628.681 997.773 631.153 1003.51 623.359Z" fill="#2D7B5A"/>
</g>
</g>
</svg>
