<?xml version="1.0" encoding="UTF-8" standalone="no"?>
<!-- Created with Inkscape (http://www.inkscape.org/) -->

<svg
   version="1.1"
   id="svg251"
   width="880"
   height="880"
   viewBox="0 0 880 880"
   sodipodi:docname="pizza-box-publicdomainvectors.org.svg"
   inkscape:version="1.2 (dc2aedaf03, 2022-05-15)"
   xmlns:inkscape="http://www.inkscape.org/namespaces/inkscape"
   xmlns:sodipodi="http://sodipodi.sourceforge.net/DTD/sodipodi-0.dtd"
   xmlns="http://www.w3.org/2000/svg"
   xmlns:svg="http://www.w3.org/2000/svg">
  <defs
     id="defs255">
    <clipPath
       clipPathUnits="userSpaceOnUse"
       id="clipPath295">
      <path
         d="M 0,660 H 660 V 0 H 0 Z"
         id="path293" />
    </clipPath>
  </defs>
  <sodipodi:namedview
     id="namedview253"
     pagecolor="#ffffff"
     bordercolor="#000000"
     borderopacity="0.25"
     inkscape:showpageshadow="2"
     inkscape:pageopacity="0.0"
     inkscape:pagecheckerboard="0"
     inkscape:deskcolor="#d1d1d1"
     showgrid="false"
     inkscape:zoom="0.95113636"
     inkscape:cx="440.52569"
     inkscape:cy="440.52569"
     inkscape:window-width="1920"
     inkscape:window-height="1017"
     inkscape:window-x="-8"
     inkscape:window-y="-8"
     inkscape:window-maximized="1"
     inkscape:current-layer="g259">
    <inkscape:page
       x="0"
       y="0"
       id="page257"
       width="880"
       height="880" />
  </sodipodi:namedview>
  <g
     id="g259"
     inkscape:groupmode="layer"
     inkscape:label="Page 1"
     transform="matrix(1.3333333,0,0,-1.3333333,0,880)">
    <g
       id="g261"
       transform="translate(35.6011,278.8535)">
      <path
         d="M 0,0 295.893,65.448 516.989,-17.05 229.894,-109.447 Z"
         style="fill:#766864;fill-opacity:1;fill-rule:evenodd;stroke:none"
         id="path263" />
    </g>
    <g
       id="g265"
       transform="translate(331.4941,344.3018)">
      <path
         d="m 0,0 v -28.05 l -295.893,-75.896 v 38.498 z"
         style="fill:#948681;fill-opacity:1;fill-rule:evenodd;stroke:none"
         id="path267" />
    </g>
    <g
       id="g269"
       transform="translate(331.4941,316.252)">
      <path
         d="m 0,0 221.096,-92.948 v 38.5 L 0,28.05 Z"
         style="fill:#b2a29e;fill-opacity:1;fill-rule:evenodd;stroke:none"
         id="path271" />
    </g>
    <g
       id="g273"
       transform="translate(373.293,582.4463)">
      <path
         d="m 0,0 -41.799,-238.145 221.096,-82.498 70.397,313.495 z"
         style="fill:#d7c9c4;fill-opacity:1;fill-rule:evenodd;stroke:none"
         id="path275" />
    </g>
    <g
       id="g277"
       transform="translate(622.9873,575.2979)">
      <path
         d="m 0,0 -34.095,-9.9 -62.149,-271.144 25.846,-32.45 z"
         style="fill:#b2a29e;fill-opacity:1;fill-rule:evenodd;stroke:none"
         id="path279" />
    </g>
    <g
       id="g281"
       transform="translate(373.293,582.4463)">
      <path
         d="M 0,0 -9.348,20.9 218.899,17.05 249.694,-7.148 Z"
         style="fill:#948681;fill-opacity:1;fill-rule:evenodd;stroke:none"
         id="path283" />
    </g>
    <g
       id="g285"
       transform="translate(373.293,582.4463)">
      <path
         d="m 0,0 -28.046,-8.798 -39.895,-208.135 26.142,-21.212 z"
         style="fill:#b2a29e;fill-opacity:1;fill-rule:evenodd;stroke:none"
         id="path287" />
    </g>
    <g
       id="g289">
      <g
         id="g291"
         clip-path="url(#clipPath295)">
        <g
           id="g297"
           transform="translate(297.3955,313.3057)">
          <path
             d="m 0,0 c 99.935,1.306 180.946,-27.431 180.946,-64.185 0,-36.752 -81.011,-67.606 -180.946,-68.912 -99.934,-1.304 -180.946,27.43 -180.946,64.185 C -180.946,-32.16 -99.934,-1.307 0,0"
             style="fill:#f6bb1a;fill-opacity:1;fill-rule:evenodd;stroke:none"
             id="path299" />
        </g>
        <g
           id="g301"
           transform="translate(35.6011,278.8535)">
          <path
             d="m 0,0 v -38.498 l 229.894,-128.488 v 57.539 z"
             style="fill:#b2a29e;fill-opacity:1;fill-rule:evenodd;stroke:none"
             id="path303" />
        </g>
        <g
           id="g305"
           transform="translate(552.5898,261.8037)">
          <path
             d="m 0,0 v -38.5 l -287.095,-111.436 v 57.539 z"
             style="fill:#948681;fill-opacity:1;fill-rule:evenodd;stroke:none"
             id="path307" />
        </g>
        <g
           id="g309"
           transform="translate(297.3955,305.2236)">
          <path
             d="M 0,0 C 87.788,0.955 158.954,-20.051 158.954,-46.916 158.954,-73.781 87.788,-96.335 0,-97.288 -87.788,-98.244 -158.956,-77.238 -158.956,-50.372 -158.956,-23.507 -87.788,-0.954 0,0"
             style="fill:#f5d567;fill-opacity:1;fill-rule:evenodd;stroke:none"
             id="path311" />
        </g>
        <g
           id="g313"
           transform="translate(455.6963,253.8994)">
          <path
             d="m 0,0 c -7.271,-24.881 -75.362,-45.063 -158.301,-45.964 -82.94,-0.902 -151.032,17.798 -158.302,42.523 7.268,24.882 75.36,45.064 158.302,45.965 C -75.36,43.427 -7.268,24.725 0,0"
             style="fill:#fbe48e;fill-opacity:1;fill-rule:evenodd;stroke:none"
             id="path315" />
        </g>
        <g
           id="g317"
           transform="translate(336.5928,238.4268)">
          <path
             d="m 0,0 c 17.694,0 32.038,-4.864 32.038,-10.861 0,-6 -14.344,-10.865 -32.038,-10.865 -17.693,0 -32.037,4.865 -32.037,10.865 C -32.037,-4.864 -17.693,0 0,0 m 78.647,24.75 c 13.899,0 25.164,-4.802 25.164,-10.726 C 103.811,8.102 92.546,3.3 78.647,3.3 64.751,3.3 53.486,8.102 53.486,14.024 c 0,5.924 11.265,10.726 25.161,10.726 M -1.375,47.023 c 14.504,0 26.261,-4.186 26.261,-9.349 0,-5.163 -11.757,-9.349 -26.261,-9.349 -14.503,0 -26.262,4.186 -26.262,9.349 0,5.163 11.759,9.349 26.262,9.349 m -75.761,2.201 c 15.795,0 28.6,-3.879 28.6,-8.663 0,-4.783 -12.805,-8.662 -28.6,-8.662 -15.795,0 -28.598,3.879 -28.598,8.662 0,4.784 12.803,8.663 28.598,8.663 m -68.061,-26.951 c 13.745,0 24.887,-4.37 24.887,-9.761 0,-5.392 -11.142,-9.762 -24.887,-9.762 -13.745,0 -24.887,4.37 -24.887,9.762 0,5.391 11.142,9.761 24.887,9.761 m 76.173,-6.324 c 15.567,0 28.187,-4.063 28.187,-9.075 0,-5.01 -12.62,-9.074 -28.187,-9.074 -15.567,0 -28.186,4.064 -28.186,9.074 0,5.012 12.619,9.075 28.186,9.075"
             style="fill:#cc2d23;fill-opacity:1;fill-rule:evenodd;stroke:none"
             id="path319" />
        </g>
        <g
           id="g321"
           transform="translate(344.5684,257.8115)">
          <path
             d="m 0,0 c -6.036,0 -10.932,-1.539 -10.932,-3.438 0,-1.898 4.896,-3.437 10.932,-3.437 6.037,0 10.932,1.539 10.932,3.437 C 10.932,-1.539 6.037,0 0,0 m 0,1.788 c 8.125,0 14.712,-2.34 14.712,-5.226 0,-2.885 -6.587,-5.224 -14.712,-5.224 -8.124,0 -14.713,2.339 -14.713,5.224 0,2.886 6.589,5.226 14.713,5.226"
             style="fill:#1c1a19;fill-opacity:1;fill-rule:evenodd;stroke:none"
             id="path323" />
        </g>
        <g
           id="g325"
           transform="translate(384.1006,276.1436)">
          <path
             d="m 0,0 c -6.037,0 -10.932,-1.539 -10.932,-3.438 0,-1.898 4.895,-3.437 10.932,-3.437 6.039,0 10.932,1.539 10.932,3.437 C 10.932,-1.539 6.039,0 0,0 m 0,1.788 c 8.127,0 14.713,-2.34 14.713,-5.226 0,-2.885 -6.586,-5.224 -14.713,-5.224 -8.124,0 -14.711,2.339 -14.711,5.224 0,2.886 6.587,5.226 14.711,5.226"
             style="fill:#1c1a19;fill-opacity:1;fill-rule:evenodd;stroke:none"
             id="path327" />
        </g>
        <g
           id="g329"
           transform="translate(231.5576,262.3613)">
          <path
             d="m 0,0 c -6.038,0 -10.932,-1.538 -10.932,-3.436 0,-1.901 4.894,-3.439 10.932,-3.439 6.037,0 10.932,1.538 10.932,3.439 C 10.932,-1.538 6.037,0 0,0 m 0,1.787 c 8.125,0 14.712,-2.339 14.712,-5.223 0,-2.887 -6.587,-5.226 -14.712,-5.226 -8.126,0 -14.712,2.339 -14.712,5.226 0,2.884 6.586,5.223 14.712,5.223"
             style="fill:#1c1a19;fill-opacity:1;fill-rule:evenodd;stroke:none"
             id="path331" />
        </g>
        <g
           id="g333"
           transform="translate(226.0264,231.0566)">
          <path
             d="m 0,0 c -6.038,0 -10.932,-1.54 -10.932,-3.438 0,-1.898 4.894,-3.437 10.932,-3.437 6.037,0 10.932,1.539 10.932,3.437 C 10.932,-1.54 6.037,0 0,0 m 0,1.786 c 8.124,0 14.712,-2.338 14.712,-5.224 0,-2.886 -6.588,-5.224 -14.712,-5.224 -8.126,0 -14.712,2.338 -14.712,5.224 0,2.886 6.586,5.224 14.712,5.224"
             style="fill:#1c1a19;fill-opacity:1;fill-rule:evenodd;stroke:none"
             id="path335" />
        </g>
        <g
           id="g337"
           transform="translate(278.6699,223.9268)">
          <path
             d="m 0,0 c -6.038,0 -10.933,-1.537 -10.933,-3.438 0,-1.897 4.895,-3.436 10.933,-3.436 6.037,0 10.932,1.539 10.932,3.436 C 10.932,-1.537 6.037,0 0,0 m 0,1.789 c 8.124,0 14.712,-2.34 14.712,-5.227 0,-2.885 -6.588,-5.223 -14.712,-5.223 -8.126,0 -14.712,2.338 -14.712,5.223 0,2.887 6.586,5.227 14.712,5.227"
             style="fill:#1c1a19;fill-opacity:1;fill-rule:evenodd;stroke:none"
             id="path339" />
        </g>
        <g
           id="g341"
           transform="translate(390.8359,236.4307)">
          <path
             d="m 0,0 c -6.039,0 -10.932,-1.54 -10.932,-3.438 0,-1.899 4.893,-3.437 10.932,-3.437 6.037,0 10.932,1.538 10.932,3.437 C 10.932,-1.54 6.037,0 0,0 m 0,1.787 c 8.125,0 14.711,-2.339 14.711,-5.225 0,-2.885 -6.586,-5.223 -14.711,-5.223 -8.126,0 -14.713,2.338 -14.713,5.223 0,2.886 6.587,5.225 14.713,5.225"
             style="fill:#1c1a19;fill-opacity:1;fill-rule:evenodd;stroke:none"
             id="path343" />
        </g>
        <g
           id="g345"
           transform="translate(273.1582,269.0156)">
          <path
             d="M 0,0 C 7.798,1.802 17.08,1.924 25.445,-0.064 33.812,-2.05 39.489,-5.725 41.623,-9.885 33.825,-11.686 24.543,-11.809 16.178,-9.821 7.811,-7.835 2.135,-4.161 0,0"
             style="fill:#9ac421;fill-opacity:1;fill-rule:evenodd;stroke:none"
             id="path347" />
        </g>
        <g
           id="g349"
           transform="translate(350.7061,259.1162)">
          <path
             d="m 0,0 c 7.799,1.801 17.079,1.923 25.446,-0.063 8.365,-1.987 14.043,-5.662 16.177,-9.823 -7.797,-1.8 -17.079,-1.923 -25.445,0.064 C 7.811,-7.835 2.136,-4.161 0,0"
             style="fill:#9ac421;fill-opacity:1;fill-rule:evenodd;stroke:none"
             id="path351" />
        </g>
        <g
           id="g353"
           transform="translate(167.835,234.3613)">
          <path
             d="M 0,0 C 7.799,1.801 17.08,1.923 25.447,-0.064 33.813,-2.052 39.489,-5.726 41.624,-9.887 33.826,-11.688 24.544,-11.81 16.178,-9.822 7.811,-7.835 2.135,-4.161 0,0"
             style="fill:#9ac421;fill-opacity:1;fill-rule:evenodd;stroke:none"
             id="path355" />
        </g>
        <g
           id="g357"
           transform="translate(227.0586,276.71)">
          <path
             d="m 0,0 c -7.798,1.802 -17.079,1.923 -25.446,-0.064 -8.367,-1.987 -14.043,-5.661 -16.178,-9.821 7.799,-1.802 17.081,-1.924 25.447,0.064 C -7.811,-7.835 -2.135,-4.16 0,0"
             style="fill:#9ac421;fill-opacity:1;fill-rule:evenodd;stroke:none"
             id="path359" />
        </g>
        <g
           id="g361"
           transform="translate(334.3066,244.5352)">
          <path
             d="m 0,0 c -7.799,1.802 -17.08,1.923 -25.446,-0.064 -8.367,-1.987 -14.042,-5.66 -16.177,-9.82 7.798,-1.803 17.079,-1.923 25.445,0.063 C -7.809,-7.834 -2.134,-4.16 0,0"
             style="fill:#9ac421;fill-opacity:1;fill-rule:evenodd;stroke:none"
             id="path363" />
        </g>
      </g>
    </g>
  </g>
</svg>
