<svg xmlns="http://www.w3.org/2000/svg" viewBox="0 0 151.5 151.5"><defs><style>.cls-1{fill:#e9282a;}.cls-2{fill:#fff;}.cls-3{fill:#fbe500;}</style></defs><title>LogoSquareRedSVG</title><g id="Layer_2" data-name="Layer 2"><g id="Layer_1-2" data-name="Layer 1"><rect class="cls-1" width="151.5" height="151.5"/><path class="cls-2" d="M40.63,130.57v-5.7h3.53v.57H41.25v2h2.68V128H41.25v2.57Z"/><path class="cls-2" d="M44.58,130.57v-4.1h.57v.67l-.08-.1a1.11,1.11,0,0,1,.45-.46,1.41,1.41,0,0,1,.71-.17h.26V127h-.36a1,1,0,0,0-.71.27,1.09,1.09,0,0,0-.27.78v2.53Z"/><path class="cls-2" d="M48.84,130.66a1.9,1.9,0,0,1-1-.28,2,2,0,0,1-.74-.77,2.33,2.33,0,0,1-.26-1.11,2.15,2.15,0,0,1,.26-1.09,1.93,1.93,0,0,1,.71-.76,1.87,1.87,0,0,1,1-.27,1.8,1.8,0,0,1,1.39.6,2,2,0,0,1,.37.63,2,2,0,0,1,.13.72v.17l0,.2H47.17v-.54h3.14l-.27.23a1.29,1.29,0,0,0-.1-.76,1.3,1.3,0,0,0-1.16-.72,1.39,1.39,0,0,0-.71.2,1.46,1.46,0,0,0-.51.56,2.49,2.49,0,0,0,0,1.7,1.43,1.43,0,0,0,.53.56,1.46,1.46,0,0,0,.73.2,1.24,1.24,0,0,0,.76-.22,1.69,1.69,0,0,0,.5-.53l.49.26a1.62,1.62,0,0,1-.38.51,1.79,1.79,0,0,1-.6.37A1.92,1.92,0,0,1,48.84,130.66Z"/><path class="cls-2" d="M52.92,130.66a1.89,1.89,0,0,1-1-.29,1.69,1.69,0,0,1-.64-.82l.48-.23a1.55,1.55,0,0,0,.5.6,1.16,1.16,0,0,0,.7.22,1.05,1.05,0,0,0,.62-.18.54.54,0,0,0,.25-.47.49.49,0,0,0-.12-.34.87.87,0,0,0-.28-.19,1.68,1.68,0,0,0-.29-.1l-.59-.17a1.71,1.71,0,0,1-.82-.45,1,1,0,0,1-.25-.68,1.11,1.11,0,0,1,.18-.63,1.35,1.35,0,0,1,.5-.41,1.59,1.59,0,0,1,.7-.14,1.69,1.69,0,0,1,.94.27,1.46,1.46,0,0,1,.61.75l-.49.23a1.26,1.26,0,0,0-.45-.54,1.09,1.09,0,0,0-.63-.19.83.83,0,0,0-.56.17.59.59,0,0,0-.2.45.52.52,0,0,0,.1.33.83.83,0,0,0,.25.18l.25.09.68.2a1.7,1.7,0,0,1,.78.45,1,1,0,0,1,.28.72,1,1,0,0,1-.19.61,1.1,1.1,0,0,1-.51.41A1.84,1.84,0,0,1,52.92,130.66Z"/><path class="cls-2" d="M55.2,130.57v-5.8h.57v2.49l-.13,0a1.29,1.29,0,0,1,.51-.62,1.37,1.37,0,0,1,.8-.23,1.57,1.57,0,0,1,.79.19,1.53,1.53,0,0,1,.55.55,1.5,1.5,0,0,1,.2.79v2.66h-.57v-2.44a1.41,1.41,0,0,0-.14-.64,1,1,0,0,0-.38-.4,1.1,1.1,0,0,0-.55-.14,1.15,1.15,0,0,0-.55.14,1,1,0,0,0-.38.41,1.22,1.22,0,0,0-.15.63v2.44Z"/><path class="cls-2" d="M60.59,130.57v-5.7h3.53v.57H61.21v2h2.68V128H61.21v2.57Z"/><path class="cls-2" d="M64.54,130.57v-4.1h.57v.67L65,127a1.11,1.11,0,0,1,.45-.46,1.41,1.41,0,0,1,.71-.17h.26V127h-.36a1,1,0,0,0-.71.27,1.09,1.09,0,0,0-.27.78v2.53Z"/><path class="cls-2" d="M68.86,130.66a2,2,0,0,1-1.06-.28,2,2,0,0,1-.75-.76,2.34,2.34,0,0,1,0-2.2,2.05,2.05,0,0,1,.75-.77,2.1,2.1,0,0,1,1.07-.27,2.13,2.13,0,0,1,1.07.27,2,2,0,0,1,.74.76,2.38,2.38,0,0,1,0,2.22,2.13,2.13,0,0,1-.76.76A2,2,0,0,1,68.86,130.66Zm0-.57a1.45,1.45,0,0,0,1.27-.77,1.68,1.68,0,0,0,.2-.81,1.6,1.6,0,0,0-.2-.79,1.44,1.44,0,0,0-2-.56,1.43,1.43,0,0,0-.53.56,1.6,1.6,0,0,0-.2.79,1.68,1.68,0,0,0,.2.81,1.43,1.43,0,0,0,.53.56A1.37,1.37,0,0,0,68.86,130.09Z"/><path class="cls-2" d="M71.76,130.57v-4.1h.57v.78l-.09-.12a1.29,1.29,0,0,1,.5-.56,1.46,1.46,0,0,1,.74-.19,1.42,1.42,0,0,1,.85.26,1.46,1.46,0,0,1,.55.7h-.16a1.33,1.33,0,0,1,.53-.73,1.6,1.6,0,0,1,1.6-.05,1.64,1.64,0,0,1,.56.55,1.51,1.51,0,0,1,.21.79v2.66H77v-2.44a1.41,1.41,0,0,0-.13-.64,1.07,1.07,0,0,0-.36-.4,1.07,1.07,0,0,0-1.06,0,1.08,1.08,0,0,0-.38.41,1.34,1.34,0,0,0-.13.63v2.44H74.4v-2.44a1.41,1.41,0,0,0-.13-.64,1,1,0,0,0-.89-.54,1.09,1.09,0,0,0-.54.14,1.05,1.05,0,0,0-.37.41,1.33,1.33,0,0,0-.14.63v2.44Z"/><path class="cls-2" d="M80.71,130.57v-5.13H79.13v-.57h3.75v.57H81.32v5.13Z"/><path class="cls-2" d="M83.36,130.57v-5.8h.58v2.49l-.13,0a1.27,1.27,0,0,1,.5-.62,1.38,1.38,0,0,1,.81-.23,1.55,1.55,0,0,1,.78.19,1.45,1.45,0,0,1,.55.55,1.51,1.51,0,0,1,.21.79v2.66h-.58v-2.44a1.29,1.29,0,0,0-.14-.64,1,1,0,0,0-.37-.4A1.15,1.15,0,0,0,85,127a1.1,1.1,0,0,0-.55.14,1,1,0,0,0-.39.41,1.33,1.33,0,0,0-.14.63v2.44Z"/><path class="cls-2" d="M89.43,130.66a2,2,0,0,1-1.77-1,2.23,2.23,0,0,1-.27-1.11,2.25,2.25,0,0,1,.26-1.09,2,2,0,0,1,.71-.76,1.93,1.93,0,0,1,1-.27,1.83,1.83,0,0,1,.79.16,1.86,1.86,0,0,1,.59.44,2,2,0,0,1,.38.63,2,2,0,0,1,.13.72,1,1,0,0,1,0,.17,1.5,1.5,0,0,1,0,.2H87.76v-.54H90.9l-.28.23a1.21,1.21,0,0,0-.09-.76,1.31,1.31,0,0,0-.47-.52,1.29,1.29,0,0,0-.69-.2,1.36,1.36,0,0,0-.71.2,1.32,1.32,0,0,0-.51.56,2.56,2.56,0,0,0,0,1.7,1.39,1.39,0,0,0,.54.56,1.46,1.46,0,0,0,.73.2,1.26,1.26,0,0,0,.76-.22,1.81,1.81,0,0,0,.5-.53l.49.26a1.78,1.78,0,0,1-.38.51,2,2,0,0,1-.6.37A1.92,1.92,0,0,1,89.43,130.66Z"/><path class="cls-2" d="M96,130.66a2.92,2.92,0,0,1-1.11-.21,2.73,2.73,0,0,1-.91-.62,2.84,2.84,0,0,1-.61-.93,3.3,3.3,0,0,1,0-2.37,2.84,2.84,0,0,1,.61-.93,2.56,2.56,0,0,1,.91-.61,2.93,2.93,0,0,1,1.11-.22,3,3,0,0,1,1.12.22,2.94,2.94,0,0,1,.91.62,2.84,2.84,0,0,1,.61.93,3,3,0,0,1,.22,1.18,3.06,3.06,0,0,1-.22,1.18,2.84,2.84,0,0,1-.61.93,2.94,2.94,0,0,1-.91.62A3,3,0,0,1,96,130.66Zm0-.57a2.21,2.21,0,0,0,.91-.18,2.29,2.29,0,0,0,.71-.52,2.34,2.34,0,0,0,.46-.76,2.49,2.49,0,0,0,.17-.91,2.55,2.55,0,0,0-.17-.92,2.41,2.41,0,0,0-.46-.75,2.14,2.14,0,0,0-.71-.52,2.37,2.37,0,0,0-1.81,0,2,2,0,0,0-.71.52,2.44,2.44,0,0,0-.47.75,2.54,2.54,0,0,0-.16.92,2.49,2.49,0,0,0,.16.91,2.37,2.37,0,0,0,.47.76,2.18,2.18,0,0,0,.71.52A2.26,2.26,0,0,0,96,130.09Z"/><path class="cls-2" d="M100.82,130.57l-1.6-4.1h.64l1.35,3.6H101l1.36-3.6H103l-1.62,4.1Z"/><path class="cls-2" d="M105.28,130.66a1.92,1.92,0,0,1-1-.28,1.87,1.87,0,0,1-.73-.77,2.23,2.23,0,0,1-.27-1.11,2.15,2.15,0,0,1,.26-1.09,1.93,1.93,0,0,1,.71-.76,1.87,1.87,0,0,1,2.39.33,2.25,2.25,0,0,1,.38.63,2.18,2.18,0,0,1,.13.72s0,.11,0,.17l0,.2h-3.46v-.54h3.14l-.28.23a1.22,1.22,0,0,0-.1-.76,1.3,1.3,0,0,0-1.16-.72,1.39,1.39,0,0,0-.71.2,1.36,1.36,0,0,0-.5.56,1.43,1.43,0,0,0-.15.84,1.51,1.51,0,0,0,.16.86,1.43,1.43,0,0,0,.53.56,1.46,1.46,0,0,0,.73.2,1.22,1.22,0,0,0,.76-.22,1.69,1.69,0,0,0,.5-.53l.49.26a1.74,1.74,0,0,1-.37.51,2,2,0,0,1-.61.37A1.89,1.89,0,0,1,105.28,130.66Z"/><path class="cls-2" d="M107.93,130.57v-4.1h.58v.79l-.13,0a1.27,1.27,0,0,1,.5-.62,1.38,1.38,0,0,1,.81-.23,1.5,1.5,0,0,1,1.34.74,1.6,1.6,0,0,1,.2.79v2.66h-.58v-2.44a1.41,1.41,0,0,0-.13-.64,1,1,0,0,0-.38-.4,1.1,1.1,0,0,0-.55-.14,1.13,1.13,0,0,0-.56.14,1,1,0,0,0-.38.41,1.22,1.22,0,0,0-.14.63v2.44Z"/><path class="cls-3" d="M23.38,121.06V106.15h5.73a6.52,6.52,0,0,1,2.73.54,4.24,4.24,0,0,1,1.87,1.6,4.79,4.79,0,0,1,.68,2.62,4.6,4.6,0,0,1-.69,2.58,4.43,4.43,0,0,1-1.88,1.62,6.49,6.49,0,0,1-2.71.55H26.49v5.4ZM26.49,113h2.64a2.29,2.29,0,0,0,1.14-.26A1.86,1.86,0,0,0,31,112a2,2,0,0,0,.27-1.06,2.11,2.11,0,0,0-.27-1.08,1.86,1.86,0,0,0-.75-.72,2.4,2.4,0,0,0-1.14-.26H26.49Z"/><path class="cls-3" d="M33.57,121.06l5-14.91h4.12l5,14.91H44.4l-1-3H37.93l-1,3Zm5.23-5.74h3.74l-2.28-7h.84Z"/><path class="cls-3" d="M48.82,121.06V106.15h5.73a6.55,6.55,0,0,1,2.73.54,4.24,4.24,0,0,1,1.87,1.6,4.79,4.79,0,0,1,.68,2.62,4.6,4.6,0,0,1-.69,2.58,4.43,4.43,0,0,1-1.88,1.62,6.49,6.49,0,0,1-2.71.55H51.93v5.4ZM51.93,113h2.64a2.29,2.29,0,0,0,1.14-.26,1.86,1.86,0,0,0,.75-.72,2,2,0,0,0,.27-1.06,2.11,2.11,0,0,0-.27-1.08,1.86,1.86,0,0,0-.75-.72,2.4,2.4,0,0,0-1.14-.26H51.93Z"/><path class="cls-3" d="M59,121.06l5-14.91h4.13l5,14.91H69.84l-1-3H63.37l-1,3Zm5.22-5.74H68l-2.28-7h.84Z"/><path class="cls-3" d="M76.22,120.81l2-14.3h5.28a5.71,5.71,0,0,1,2.42.49,3.74,3.74,0,0,1,1.62,1.45,4.49,4.49,0,0,1,.58,2.38,4.61,4.61,0,0,1-.67,2.5,4.47,4.47,0,0,1-1.9,1.69,6.38,6.38,0,0,1-2.89.61H79.92l-.73,5.18ZM80.29,113h2.55a2.37,2.37,0,0,0,1.18-.29,2,2,0,0,0,.8-.79,2.15,2.15,0,0,0,.3-1.13,1.65,1.65,0,0,0-.51-1.26,2,2,0,0,0-1.37-.47H80.82Z"/><path class="cls-3" d="M88.67,120.81l2-14.3h3l-2,14.3Z"/><path class="cls-3" d="M93.12,120.81l.33-2.4L101,109.1H95.14l.36-2.59h9.88l-.33,2.4-7.65,9.31h6.54l-.36,2.59Z"/><path class="cls-3" d="M104,120.81l.32-2.4,7.56-9.31H106l.37-2.59h9.88l-.33,2.4-7.65,9.31h6.54l-.37,2.59Z"/><path class="cls-3" d="M114.88,120.81l6.83-14.3h4l2.84,14.3h-3.13l-.54-2.92h-5.22l-1.36,2.92Zm5.92-5.51h3.55l-1.22-6.71.78.09Z"/><polygon class="cls-2" points="128.51 122.16 74.31 122.16 128.51 124.27 128.51 122.16"/><path class="cls-2" d="M52.35,97A4.28,4.28,0,0,0,53,94.77a4.12,4.12,0,0,0-.53-2.16A3.48,3.48,0,0,0,51,91.29a5.2,5.2,0,0,0-2.2-.44H44l-.13.88h-.19L40.3,91.6a1,1,0,0,0-.06.25.72.72,0,0,0,.69.74l1.82.07a.87.87,0,0,1,.8,1.08l0,.06a.87.87,0,0,1-.88.66l-4.32-.18c-.68,0-1,.23-1.08.6a.72.72,0,0,0,.68.81l4.67.19a.84.84,0,0,1,.63.33L43,97.52a.82.82,0,0,1-.49.16L40,97.57c-.62,0-1,.23-1,.6a.71.71,0,0,0,.68.81l3.16.13-.65,4.71h2.69l.66-4.7H48a5.78,5.78,0,0,0,2.62-.55A4.17,4.17,0,0,0,52.35,97ZM50,95.79a1.94,1.94,0,0,1-.73.72,2.17,2.17,0,0,1-1.07.26H45.86l.48-3.57h2.2a1.73,1.73,0,0,1,1.24.43,1.46,1.46,0,0,1,.46,1.14A1.94,1.94,0,0,1,50,95.79Z"/><path class="cls-2" d="M57.4,90.85l-6.2,13h3.06l1.24-2.65h4.73l.49,2.65h2.84L61,90.85Zm-.82,8,2.32-4.93.9,4.93Z"/><polygon class="cls-2" points="73.09 98.73 68.34 90.85 66.27 90.85 64.46 103.82 67.16 103.82 68.28 95.75 72.99 103.82 75.08 103.82 76.89 90.85 74.19 90.85 73.09 98.73"/><path class="cls-2" d="M84,98.68h3.4v0a3,3,0,0,1-.61,1.55,3.25,3.25,0,0,1-1.27,1,4,4,0,0,1-1.67.34,3.7,3.7,0,0,1-1.9-.48,3.24,3.24,0,0,1-1.27-1.37,4.51,4.51,0,0,1-.45-2.07,5.33,5.33,0,0,1,.3-1.81,4.57,4.57,0,0,1,.87-1.46,3.86,3.86,0,0,1,1.3-1,3.77,3.77,0,0,1,1.66-.35,3,3,0,0,1,3,2.17l2.47-1.15a4.14,4.14,0,0,0-1-1.74A5.36,5.36,0,0,0,87,91.11a6.32,6.32,0,0,0-2.49-.47,6.88,6.88,0,0,0-5,2.1A7.18,7.18,0,0,0,78,95a7.3,7.3,0,0,0-.53,2.77,6.42,6.42,0,0,0,.49,2.58,5.81,5.81,0,0,0,3.28,3.22,6.39,6.39,0,0,0,2.36.44,7.37,7.37,0,0,0,2.29-.37,6.26,6.26,0,0,0,2-1.1,6,6,0,0,0,1.5-1.83,7,7,0,0,0,.73-2.59l.15-1.72H84.11Z"/><path class="cls-2" d="M97.6,98.68H101v0a3,3,0,0,1-.61,1.55,3.32,3.32,0,0,1-1.27,1,4,4,0,0,1-1.67.34,3.7,3.7,0,0,1-1.9-.48,3.18,3.18,0,0,1-1.27-1.37,4.51,4.51,0,0,1-.45-2.07,5.33,5.33,0,0,1,.3-1.81A4.54,4.54,0,0,1,95,94.4a3.89,3.89,0,0,1,1.31-1A3.76,3.76,0,0,1,98,93.08a3.08,3.08,0,0,1,2,.62,3.12,3.12,0,0,1,1,1.55l2.47-1.15a4.14,4.14,0,0,0-1-1.74,5.36,5.36,0,0,0-1.83-1.25,6.32,6.32,0,0,0-2.49-.47,6.92,6.92,0,0,0-2.79.56,6.7,6.7,0,0,0-2.23,1.54A7,7,0,0,0,91.66,95a7.3,7.3,0,0,0-.53,2.77,6.42,6.42,0,0,0,.49,2.58,5.76,5.76,0,0,0,1.33,2,5.87,5.87,0,0,0,2,1.25,6.35,6.35,0,0,0,2.36.44,7.31,7.31,0,0,0,2.28-.37,6.16,6.16,0,0,0,2-1.1,5.74,5.74,0,0,0,1.5-1.83,6.65,6.65,0,0,0,.73-2.59l.16-1.72H97.76Z"/><polygon class="cls-2" points="104.23 103.82 106.93 103.82 108.74 90.85 106.05 90.85 104.23 103.82"/><polygon class="cls-2" points="111.82 101.47 113.3 90.85 110.61 90.85 108.8 103.82 116.98 103.82 117.31 101.47 111.82 101.47"/><path class="cls-2" d="M35.55,94.17l-.7,0a.7.7,0,0,0-.74.68.71.71,0,0,0,.68.74l.7,0a.72.72,0,0,0,.74-.68A.7.7,0,0,0,35.55,94.17Z"/><path class="cls-2" d="M37.79,97.48l-.7,0A.71.71,0,0,0,37,98.87l.7,0a.71.71,0,0,0,.74-.68h0A.71.71,0,0,0,37.79,97.48Z"/><path class="cls-3" d="M117.72,53h-9.8v-.2a2,2,0,0,0-2-2H45.57a2,2,0,0,0-2,2V53H33.77a1,1,0,0,0-1,1v2.16a1,1,0,0,0,1,1H42.5c-.86,1.36-5.52,1.75-8.6,1.75V60c3.66,0,8.5-.73,9.7-2.55a2,2,0,0,0,2,1.75H65.49a8.94,8.94,0,0,0-.66,1.22,7.75,7.75,0,0,0-.44,1.44.13.13,0,0,0,0,.06h-.33A19,19,0,0,0,45.54,76.7a52.47,52.47,0,0,0,60.42,0A19,19,0,0,0,87.45,61.94h-.33a.13.13,0,0,0,0-.06,7.09,7.09,0,0,0-.45-1.44A7.92,7.92,0,0,0,86,59.22h19.92a2,2,0,0,0,2-1.75c1.2,1.82,6,2.55,9.7,2.55V58.78c-3.08,0-7.74-.39-8.6-1.75h8.72a1,1,0,0,0,1-1V53.91A1,1,0,0,0,117.72,53Z"/><path class="cls-3" d="M56.86,52.43l2.1-1.3-8.07-13v0h0l-8-2.56a6.54,6.54,0,0,0,.06-.89,7.46,7.46,0,1,0-.76,3.26l7.1,2.27Z"/><path class="cls-1" d="M33,29.47a4.2,4.2,0,0,1,2.91.18,4.27,4.27,0,1,0-4.09,7.47A4.28,4.28,0,0,1,33,29.47Z"/><path class="cls-3" d="M116,27.19a7.44,7.44,0,0,0-7.44,7.44,6.54,6.54,0,0,0,.06.89l-8,2.56h0v0l-8.07,13,2.1,1.3,7.6-12.27,7.1-2.27A7.44,7.44,0,1,0,116,27.19Z"/><path class="cls-1" d="M118.51,29.47a4.2,4.2,0,0,0-2.91.18,4.27,4.27,0,1,1,4.09,7.47,4.28,4.28,0,0,0-1.18-7.65Z"/><path class="cls-3" d="M92.79,51.53a17,17,0,1,1-22.34-16.3l-.87-2.66a19.83,19.83,0,1,0,12.59.09l-.9,2.64A17.06,17.06,0,0,1,92.79,51.53Z"/><path class="cls-3" d="M80.81,36.64,75.75,51.41,70.89,36.58a15.61,15.61,0,1,0,9.92.06Z"/><path class="cls-1" d="M83.27,31.14h0l-1-.36L75.76,49.69l-6.22-19-1,.34h0a21.62,21.62,0,1,0,14.77.1Zm-8,20.44.52,1.51.52-1.5,5-14.75a15.63,15.63,0,1,1-10.94-.07L75,50.87Zm.39,19.65a19.82,19.82,0,0,1-6.56-38.47l.87,2.65a17,17,0,1,0,11.85.08l.9-2.64a19.81,19.81,0,0,1-7.06,38.38Z"/><path class="cls-1" d="M75.91,25.65a15.39,15.39,0,0,0-5,.77L75.8,41.26l5.06-14.77A15.63,15.63,0,0,0,75.91,25.65Z"/><path class="cls-1" d="M75.93,21.44a19.88,19.88,0,0,0-6.3,1l.87,2.65a16.89,16.89,0,0,1,10.82.08l.9-2.64A19.54,19.54,0,0,0,75.93,21.44Z"/><path class="cls-3" d="M83.5,20.46,83,20.28a22.31,22.31,0,0,0-7-1.19,21.84,21.84,0,0,0-7,1.1l-.52.17.56,1.71h0l.87,2.66h0l.52,1.58L75.79,43l5.76-16.83h0L82,24.81h0l.71-2.06Zm-13.11,2.3c.4-.11.8-.22,1.2-.31l.21,0c.4-.09.8-.16,1.21-.22l.2,0c.41-.05.83-.1,1.25-.13h.14c.44,0,.88-.05,1.33,0h0c.44,0,.89,0,1.33.05h.14c.42,0,.83.09,1.25.15l.2,0c.4.06.8.14,1.2.23l.22.05c.39.1.79.2,1.18.32l.07,0L81,24.46h-.06q-.54-.16-1.08-.3l-.19,0c-.36-.08-.73-.15-1.09-.21l-.19,0c-.37-.05-.75-.1-1.12-.13h-.14c-.4,0-.79-.05-1.19-.05s-.8,0-1.19,0h-.14c-.38,0-.75.07-1.13.12l-.18,0c-.37.06-.73.12-1.1.2l-.18,0c-.37.08-.74.17-1.1.28h-.05l-.53-1.61Zm1.25,4,.37-.1.46-.12.69-.14.44-.07.77-.09.38,0c.38,0,.77,0,1.15,0h0a10.93,10.93,0,0,1,1.15.06l.39,0,.76.1.44.08c.23.05.46.09.69.15l.46.12.37.11L75.81,39.54Z"/><circle class="cls-3" cx="73.92" cy="28.59" r="1"/><circle class="cls-3" cx="76.42" cy="29.59" r="1"/><circle class="cls-3" cx="78.42" cy="28.09" r="0.5"/><circle class="cls-3" cx="74.42" cy="30.59" r="0.5"/><circle class="cls-3" cx="75.67" cy="34.84" r="0.75"/><circle class="cls-3" cx="76.17" cy="32.34" r="1.25"/><path class="cls-3" d="M69.39,58.1a1.5,1.5,0,1,0,1.49,1.51A1.5,1.5,0,0,0,69.39,58.1Z"/><path class="cls-3" d="M64,50.58a1.5,1.5,0,1,0,1.49,1.51A1.52,1.52,0,0,0,64,50.58Z"/><path class="cls-1" d="M86.18,48.48a.71.71,0,0,0,.7-.69.69.69,0,0,0-.69-.69.69.69,0,0,0,0,1.38Z"/><path class="cls-3" d="M80.45,58.12a2.29,2.29,0,1,0-2.28-2.3A2.3,2.3,0,0,0,80.45,58.12Z"/><circle class="cls-3" cx="68.57" cy="46.72" r="1.7" transform="translate(-0.06 0.09) rotate(-0.08)"/><path class="cls-1" d="M68.55,50a3.32,3.32,0,1,0-3.3-3.34A3.32,3.32,0,0,0,68.55,50Zm0-5a1.7,1.7,0,1,1-1.71,1.69A1.69,1.69,0,0,1,68.58,45Z"/><path class="cls-1" d="M80.44,60.09a4.26,4.26,0,1,0-4.23-4.29A4.26,4.26,0,0,0,80.44,60.09Zm0-6.55a2.29,2.29,0,1,1-2.31,2.28A2.3,2.3,0,0,1,80.48,53.54Z"/><path class="cls-1" d="M81.67,46.74A1.78,1.78,0,1,0,79.9,45,1.78,1.78,0,0,0,81.67,46.74Zm0-2.69a.92.92,0,1,1-.91.91A.91.91,0,0,1,81.68,44.05Z"/><path class="cls-1" d="M64,49.16a2.92,2.92,0,1,0,2.9,2.94A2.92,2.92,0,0,0,64,49.16Zm0,4.42a1.5,1.5,0,1,1,1.51-1.49A1.51,1.51,0,0,1,63.93,53.58Z"/><path class="cls-1" d="M77.2,61.69A1.35,1.35,0,0,0,75.85,63a1.33,1.33,0,0,0,1.33,1.35,1.35,1.35,0,0,0,1.36-1.33A1.36,1.36,0,0,0,77.2,61.69Z"/><path class="cls-1" d="M70.7,52.19a1.35,1.35,0,0,0-1.35,1.34,1.33,1.33,0,0,0,1.33,1.35A1.35,1.35,0,0,0,72,53.55,1.36,1.36,0,0,0,70.7,52.19Z"/><path class="cls-1" d="M68.89,39.69a1,1,0,1,0,1,1.05A1.05,1.05,0,0,0,68.89,39.69Z"/><path class="cls-1" d="M74.68,59.88A1.33,1.33,0,0,0,76,58.55a1.34,1.34,0,1,0-2.68,0A1.33,1.33,0,0,0,74.68,59.88Zm0-2a.68.68,0,0,1,.68.69.69.69,0,0,1-.69.69.7.7,0,0,1-.69-.7A.69.69,0,0,1,74.7,57.85Z"/><path class="cls-1" d="M81.88,50.27a1,1,0,1,0,0-2.08,1,1,0,0,0,0,2.08Zm0-1.57a.53.53,0,0,1,.53.53.52.52,0,0,1-.54.53.53.53,0,0,1-.53-.53A.54.54,0,0,1,81.89,48.7Z"/><path class="cls-1" d="M88.76,54.51a1.35,1.35,0,0,0,0-2.69,1.35,1.35,0,1,0,0,2.69Zm0-2a.69.69,0,0,1,.69.69.69.69,0,1,1-1.38,0A.68.68,0,0,1,88.77,52.48Z"/><path class="cls-1" d="M84.91,61.51a1,1,0,1,0-1-1A1,1,0,0,0,84.91,61.51Zm0-1.5a.51.51,0,1,1-.51.5A.5.5,0,0,1,84.92,60Z"/><path class="cls-1" d="M84.91,43a1,1,0,1,0-1-1A1,1,0,0,0,84.91,43Zm0-1.5a.51.51,0,1,1-.51.5A.5.5,0,0,1,84.92,41.51Z"/><path class="cls-1" d="M86.18,49.13a1.33,1.33,0,0,0,1.35-1.33,1.35,1.35,0,1,0-1.35,1.33Zm0-2a.69.69,0,0,1,.69.69.71.71,0,0,1-.7.69.69.69,0,0,1,0-1.38Z"/><path class="cls-1" d="M69.4,56.68a2.92,2.92,0,1,0,2.9,2.94A2.92,2.92,0,0,0,69.4,56.68Zm0,4.42a1.5,1.5,0,1,1,1.51-1.49A1.5,1.5,0,0,1,69.37,61.1Z"/></g></g></svg>