<svg xmlns="http://www.w3.org/2000/svg" viewBox="0 0 152.18 152.18"><defs><style>.cls-1{fill:#e9282a;}.cls-2{fill:#fff;}.cls-3{fill:#fbe500;}</style></defs><title>LogoCircleRedSVG</title><g id="Layer_2" data-name="Layer 2"><g id="Layer_1-2" data-name="Layer 1"><circle class="cls-1" cx="76.09" cy="76.09" r="76.09"/><path class="cls-2" d="M47.23,121.62V117h2.88v.47H47.73V119h2.19v.47H47.73v2.11Z"/><path class="cls-2" d="M50.45,121.62v-3.36h.47v.55l-.06-.08a.86.86,0,0,1,.36-.37,1.06,1.06,0,0,1,.58-.14H52v.47h-.3a.78.78,0,0,0-.58.22.87.87,0,0,0-.22.64v2.07Z"/><path class="cls-2" d="M53.94,121.69a1.53,1.53,0,0,1-.85-.23,1.65,1.65,0,0,1-.6-.63,1.9,1.9,0,0,1-.22-.9,1.77,1.77,0,0,1,.22-.9,1.62,1.62,0,0,1,.57-.62,1.56,1.56,0,0,1,.83-.22,1.51,1.51,0,0,1,.65.13,1.44,1.44,0,0,1,.48.36,1.84,1.84,0,0,1,.31.52,1.65,1.65,0,0,1,.1.58v.14c0,.06,0,.11,0,.16H52.57v-.43h2.57l-.23.18a1,1,0,0,0-.07-.61,1,1,0,0,0-.39-.44,1.08,1.08,0,0,0-.56-.16,1.09,1.09,0,0,0-.58.17,1.14,1.14,0,0,0-.42.45,1.29,1.29,0,0,0-.12.69,1.31,1.31,0,0,0,.13.7,1.16,1.16,0,0,0,1,.62,1,1,0,0,0,.62-.17,1.41,1.41,0,0,0,.4-.44l.41.21a1.34,1.34,0,0,1-.31.42,1.64,1.64,0,0,1-.49.31A1.81,1.81,0,0,1,53.94,121.69Z"/><path class="cls-2" d="M57.27,121.69a1.51,1.51,0,0,1-.85-.24,1.39,1.39,0,0,1-.52-.67l.39-.18a1.3,1.3,0,0,0,.41.49,1,1,0,0,0,.57.18.85.85,0,0,0,.51-.15.47.47,0,0,0,.2-.39.35.35,0,0,0-.1-.27.6.6,0,0,0-.23-.16l-.23-.09-.48-.13a1.33,1.33,0,0,1-.67-.37.81.81,0,0,1-.21-.55.91.91,0,0,1,.15-.52,1,1,0,0,1,.41-.33,1.32,1.32,0,0,1,.57-.12,1.38,1.38,0,0,1,.77.22,1.16,1.16,0,0,1,.49.62l-.4.18a1,1,0,0,0-.36-.44,1,1,0,0,0-.52-.16.64.64,0,0,0-.45.15.42.42,0,0,0-.17.36.4.4,0,0,0,.09.27.43.43,0,0,0,.2.15,1.21,1.21,0,0,0,.2.07l.56.17a1.39,1.39,0,0,1,.64.37.82.82,0,0,1,.22.58.87.87,0,0,1-.15.5,1,1,0,0,1-.42.34A1.52,1.52,0,0,1,57.27,121.69Z"/><path class="cls-2" d="M59.13,121.62v-4.74h.47v2l-.1,0a1.06,1.06,0,0,1,.41-.52,1.21,1.21,0,0,1,.66-.18,1.24,1.24,0,0,1,.64.16,1.21,1.21,0,0,1,.45.45,1.25,1.25,0,0,1,.17.64v2.18h-.47v-2a1.05,1.05,0,0,0-.12-.52.76.76,0,0,0-.31-.33.82.82,0,0,0-.44-.11.84.84,0,0,0-.45.11.85.85,0,0,0-.32.33,1.08,1.08,0,0,0-.12.52v2Z"/><path class="cls-2" d="M63.54,121.62V117h2.88v.47H64V119h2.19v.47H64v2.11Z"/><path class="cls-2" d="M66.77,121.62v-3.36h.47v.55l-.07-.08a.86.86,0,0,1,.36-.37,1.1,1.1,0,0,1,.59-.14h.21v.47H68a.78.78,0,0,0-.59.22.91.91,0,0,0-.21.64v2.07Z"/><path class="cls-2" d="M70.3,121.69a1.62,1.62,0,0,1-.87-.23,1.65,1.65,0,0,1-.61-.62,1.74,1.74,0,0,1-.23-.91,1.72,1.72,0,0,1,.83-1.52,1.85,1.85,0,0,1,1.75,0,1.65,1.65,0,0,1,.61.62,1.93,1.93,0,0,1,0,1.81,1.7,1.7,0,0,1-.62.63A1.66,1.66,0,0,1,70.3,121.69Zm0-.47a1.08,1.08,0,0,0,.61-.17,1.19,1.19,0,0,0,.43-.46,1.32,1.32,0,0,0,.16-.66,1.28,1.28,0,0,0-.16-.65,1.35,1.35,0,0,0-.43-.46,1.16,1.16,0,0,0-.61-.16,1.13,1.13,0,0,0-.61.16,1.27,1.27,0,0,0-.6,1.11,1.32,1.32,0,0,0,.16.66,1.15,1.15,0,0,0,.44.46A1.06,1.06,0,0,0,70.3,121.22Z"/><path class="cls-2" d="M72.67,121.62v-3.36h.47v.64l-.08-.09a1.08,1.08,0,0,1,.41-.46,1.15,1.15,0,0,1,.6-.16,1.25,1.25,0,0,1,1.15.78h-.13a1,1,0,0,1,.43-.59,1.29,1.29,0,0,1,1.31,0,1.32,1.32,0,0,1,.46.45,1.25,1.25,0,0,1,.17.64v2.18H77v-2a1.17,1.17,0,0,0-.11-.52.8.8,0,0,0-.3-.33.77.77,0,0,0-.43-.11.79.79,0,0,0-.43.11.9.9,0,0,0-.31.33,1.21,1.21,0,0,0-.11.52v2h-.47v-2a1.17,1.17,0,0,0-.11-.52.8.8,0,0,0-.3-.33.9.9,0,0,0-.86,0,.9.9,0,0,0-.31.33,1.21,1.21,0,0,0-.11.52v2Z"/><path class="cls-2" d="M80,121.62v-4.2H78.69V117h3.07v.47H80.48v4.2Z"/><path class="cls-2" d="M82.15,121.62v-4.74h.47v2l-.1,0a1.06,1.06,0,0,1,.41-.52,1.21,1.21,0,0,1,.66-.18,1.24,1.24,0,0,1,.64.16,1.21,1.21,0,0,1,.45.45,1.25,1.25,0,0,1,.17.64v2.18h-.47v-2a1.05,1.05,0,0,0-.12-.52.76.76,0,0,0-.31-.33.82.82,0,0,0-.44-.11.84.84,0,0,0-.45.11.85.85,0,0,0-.32.33,1.08,1.08,0,0,0-.12.52v2Z"/><path class="cls-2" d="M87.11,121.69a1.59,1.59,0,0,1-1.44-.86,1.79,1.79,0,0,1-.22-.9,1.87,1.87,0,0,1,.21-.9,1.57,1.57,0,0,1,.58-.62,1.53,1.53,0,0,1,.82-.22,1.51,1.51,0,0,1,.65.13,1.6,1.6,0,0,1,.49.36,1.81,1.81,0,0,1,.3.52,1.66,1.66,0,0,1,.11.58.71.71,0,0,1,0,.14.78.78,0,0,1,0,.16H85.75v-.43h2.56l-.22.18a1,1,0,0,0-.08-.61,1.09,1.09,0,0,0-.38-.44,1.11,1.11,0,0,0-.57-.16,1.09,1.09,0,0,0-.58.17,1.19,1.19,0,0,0-.41.45,1.29,1.29,0,0,0-.12.69,1.23,1.23,0,0,0,.13.7,1.12,1.12,0,0,0,.43.46,1.17,1.17,0,0,0,.6.16,1,1,0,0,0,.62-.17,1.44,1.44,0,0,0,.41-.44l.4.21a1.34,1.34,0,0,1-.31.42,1.52,1.52,0,0,1-.49.31A1.81,1.81,0,0,1,87.11,121.69Z"/><path class="cls-2" d="M92.45,121.69a2.31,2.31,0,0,1-.91-.18,2.2,2.2,0,0,1-.74-.5,2.34,2.34,0,0,1-.5-.76,2.7,2.7,0,0,1,0-1.94,2.45,2.45,0,0,1,.5-.76,2.36,2.36,0,0,1,.74-.5,2.49,2.49,0,0,1,.91-.17,2.27,2.27,0,0,1,.91.18,2.24,2.24,0,0,1,.75.5,2.34,2.34,0,0,1,.5.76,2.49,2.49,0,0,1,.18,1,2.58,2.58,0,0,1-.18,1,2.34,2.34,0,0,1-.5.76,2.24,2.24,0,0,1-.75.5A2.27,2.27,0,0,1,92.45,121.69Zm0-.47a1.78,1.78,0,0,0,.74-.15,1.63,1.63,0,0,0,.58-.42,1.79,1.79,0,0,0,.38-.62,2.05,2.05,0,0,0,0-1.49,1.79,1.79,0,0,0-.38-.62,1.63,1.63,0,0,0-.58-.42,1.9,1.9,0,0,0-1.48,0,1.73,1.73,0,0,0-.58.42,2,2,0,0,0-.38.62,2.2,2.2,0,0,0,0,1.49,2,2,0,0,0,.38.62,1.73,1.73,0,0,0,.58.42A1.85,1.85,0,0,0,92.45,121.22Z"/><path class="cls-2" d="M96.42,121.62l-1.31-3.36h.53l1.1,2.94h-.17l1.11-2.94h.53l-1.32,3.36Z"/><path class="cls-2" d="M100.07,121.69a1.59,1.59,0,0,1-1.44-.86,1.79,1.79,0,0,1-.22-.9,1.87,1.87,0,0,1,.21-.9,1.57,1.57,0,0,1,.58-.62,1.53,1.53,0,0,1,.82-.22,1.51,1.51,0,0,1,.65.13,1.6,1.6,0,0,1,.49.36,1.81,1.81,0,0,1,.3.52,1.66,1.66,0,0,1,.11.58.71.71,0,0,1,0,.14.78.78,0,0,1,0,.16H98.71v-.43h2.56l-.22.18a1,1,0,0,0-.08-.61,1.09,1.09,0,0,0-.38-.44,1.11,1.11,0,0,0-.57-.16,1.09,1.09,0,0,0-.58.17,1.19,1.19,0,0,0-.41.45,1.29,1.29,0,0,0-.12.69,1.23,1.23,0,0,0,.13.7,1.12,1.12,0,0,0,.43.46,1.17,1.17,0,0,0,.6.16,1,1,0,0,0,.62-.17,1.44,1.44,0,0,0,.41-.44l.4.21a1.34,1.34,0,0,1-.31.42,1.52,1.52,0,0,1-.49.31A1.81,1.81,0,0,1,100.07,121.69Z"/><path class="cls-2" d="M102.24,121.62v-3.36h.47v.65l-.11,0a1.11,1.11,0,0,1,.41-.52,1.21,1.21,0,0,1,.66-.18,1.24,1.24,0,0,1,.64.16,1.21,1.21,0,0,1,.45.45,1.16,1.16,0,0,1,.17.64v2.18h-.47v-2a1.17,1.17,0,0,0-.11-.52.76.76,0,0,0-.31-.33.84.84,0,0,0-.45-.11.81.81,0,0,0-.77.44,1.21,1.21,0,0,0-.11.52v2Z"/><path class="cls-3" d="M33.13,113.84V101.65h4.68a5.25,5.25,0,0,1,2.23.45,3.48,3.48,0,0,1,1.53,1.3,3.93,3.93,0,0,1,.55,2.15,3.75,3.75,0,0,1-.56,2.11A3.6,3.6,0,0,1,40,109a5.22,5.22,0,0,1-2.21.44H35.66v4.42Zm2.53-6.62h2.16a1.83,1.83,0,0,0,.93-.22,1.47,1.47,0,0,0,.62-.59,1.64,1.64,0,0,0,.22-.86,1.7,1.7,0,0,0-.22-.89,1.51,1.51,0,0,0-.62-.58,1.83,1.83,0,0,0-.93-.22H35.66Z"/><path class="cls-3" d="M41.45,113.84l4.13-12.19H49l4.12,12.19H50.31l-.82-2.48H45l-.82,2.48Zm4.27-4.69h3.06l-1.86-5.76h.69Z"/><path class="cls-3" d="M53.92,113.84V101.65H58.6a5.25,5.25,0,0,1,2.23.45,3.48,3.48,0,0,1,1.53,1.3,3.93,3.93,0,0,1,.56,2.15,3.76,3.76,0,0,1-.57,2.11A3.52,3.52,0,0,1,60.82,109a5.24,5.24,0,0,1-2.22.44H56.46v4.42Zm2.54-6.62h2.16a1.83,1.83,0,0,0,.93-.22,1.45,1.45,0,0,0,.61-.59,1.64,1.64,0,0,0,.22-.86,1.7,1.7,0,0,0-.22-.89,1.48,1.48,0,0,0-.61-.58,1.83,1.83,0,0,0-.93-.22H56.46Z"/><path class="cls-3" d="M62.25,113.84l4.12-12.19h3.37l4.12,12.19H71.1l-.82-2.48H65.81L65,113.84Zm4.27-4.69h3.06l-1.87-5.76h.69Z"/><path class="cls-3" d="M76.31,113.63,78,102h4.31a4.65,4.65,0,0,1,2,.4,3,3,0,0,1,1.33,1.19,3.65,3.65,0,0,1,.48,1.94,3.88,3.88,0,0,1-.55,2,3.78,3.78,0,0,1-1.55,1.38,5.31,5.31,0,0,1-2.37.49H79.34l-.59,4.23Zm3.33-6.35h2.08a1.91,1.91,0,0,0,1-.23,1.76,1.76,0,0,0,.66-.64,1.81,1.81,0,0,0,.24-.93,1.36,1.36,0,0,0-.41-1,1.64,1.64,0,0,0-1.13-.38h-2Z"/><path class="cls-3" d="M86.49,113.63,88.12,102h2.43l-1.63,11.68Z"/><path class="cls-3" d="M90.13,113.63l.27-2,6.18-7.6h-4.8l.29-2.12h8.08l-.27,2-6.25,7.61H99l-.29,2.11Z"/><path class="cls-3" d="M99,113.63l.27-2,6.18-7.6h-4.8L101,102H109l-.27,2-6.25,7.61h5.35l-.3,2.11Z"/><path class="cls-3" d="M107.91,113.63,113.49,102h3.23l2.33,11.68h-2.56l-.44-2.38h-4.26l-1.12,2.38Zm4.85-4.5h2.9l-1-5.48.64.07Z"/><polygon class="cls-2" points="119.06 114.74 74.75 114.74 119.06 116.47 119.06 114.74"/><path class="cls-2" d="M56.8,94.21a3.5,3.5,0,0,0,.5-1.86,3.3,3.3,0,0,0-.43-1.76,2.7,2.7,0,0,0-1.21-1.08,4.17,4.17,0,0,0-1.79-.36H50l-.1.72H49.7L47,89.76a.46.46,0,0,0-.05.21.57.57,0,0,0,.56.6l1.49.06a.7.7,0,0,1,.65.88l0,0a.71.71,0,0,1-.71.54L45.34,92c-.55,0-.83.19-.88.49a.59.59,0,0,0,.56.66l3.82.16a.74.74,0,0,1,.51.27L49.2,94.6a.65.65,0,0,1-.41.13l-2.08-.09c-.51,0-.79.19-.83.49a.59.59,0,0,0,.55.67l2.59.1-.54,3.85h2.2l.54-3.84h2a4.76,4.76,0,0,0,2.14-.45A3.37,3.37,0,0,0,56.8,94.21Zm-1.94-1a1.59,1.59,0,0,1-.6.58,1.75,1.75,0,0,1-.87.22H51.5l.39-2.92h1.8a1.44,1.44,0,0,1,1,.35,1.17,1.17,0,0,1,.38.93A1.6,1.6,0,0,1,54.86,93.19Z"/><path class="cls-2" d="M60.93,89.15l-5.07,10.6h2.51l1-2.16h3.87l.4,2.16H66l-2.11-10.6Zm-.67,6.51,1.89-4,.74,4Z"/><polygon class="cls-2" points="73.75 95.59 69.88 89.15 68.19 89.15 66.7 99.75 68.91 99.75 69.83 93.16 73.68 99.75 75.38 99.75 76.86 89.15 74.66 89.15 73.75 95.59"/><path class="cls-2" d="M82.64,95.55h2.78v0a2.5,2.5,0,0,1-.49,1.27,2.82,2.82,0,0,1-1,.8,3.46,3.46,0,0,1-1.37.28A3,3,0,0,1,81,97.54a2.74,2.74,0,0,1-1-1.12,3.79,3.79,0,0,1-.37-1.69,4.14,4.14,0,0,1,.25-1.48,3.6,3.6,0,0,1,.71-1.2A3.09,3.09,0,0,1,82.92,91a2.56,2.56,0,0,1,1.63.5,2.48,2.48,0,0,1,.86,1.28l2-.94a3.29,3.29,0,0,0-.81-1.42,4.26,4.26,0,0,0-1.49-1,5.26,5.26,0,0,0-2-.38,5.73,5.73,0,0,0-2.28.45,5.72,5.72,0,0,0-3,3.13,5.88,5.88,0,0,0-.43,2.27,5.28,5.28,0,0,0,.4,2.1,4.75,4.75,0,0,0,1.08,1.61,4.71,4.71,0,0,0,1.6,1,5.12,5.12,0,0,0,1.92.36,6,6,0,0,0,1.88-.3,5.15,5.15,0,0,0,1.64-.9,4.88,4.88,0,0,0,1.22-1.5,5.43,5.43,0,0,0,.6-2.11l.13-1.41h-5Z"/><path class="cls-2" d="M93.79,95.55h2.78v0a2.51,2.51,0,0,1-.5,1.27,2.67,2.67,0,0,1-1,.8,3.41,3.41,0,0,1-1.36.28,3,3,0,0,1-1.55-.39,2.68,2.68,0,0,1-1-1.12,3.66,3.66,0,0,1-.37-1.69A4.14,4.14,0,0,1,91,93.25a3.58,3.58,0,0,1,.7-1.2,3.23,3.23,0,0,1,1.07-.8A3.14,3.14,0,0,1,94.08,91a2.58,2.58,0,0,1,1.63.5,2.55,2.55,0,0,1,.86,1.28l2-.94a3.29,3.29,0,0,0-.81-1.42,4.4,4.4,0,0,0-1.5-1,5.17,5.17,0,0,0-2-.38,5.66,5.66,0,0,0-2.28.45,5.88,5.88,0,0,0-3.47,5.4,5.28,5.28,0,0,0,.4,2.1A4.93,4.93,0,0,0,90,98.54a4.76,4.76,0,0,0,1.59,1,5.17,5.17,0,0,0,1.93.36,5.9,5.9,0,0,0,1.87-.3,5.15,5.15,0,0,0,1.64-.9,4.9,4.9,0,0,0,1.23-1.5,5.43,5.43,0,0,0,.59-2.11L99,93.7h-5Z"/><polygon class="cls-2" points="99.21 99.75 101.42 99.75 102.9 89.15 100.69 89.15 99.21 99.75"/><polygon class="cls-2" points="105.42 97.83 106.63 89.15 104.42 89.15 102.94 99.75 109.63 99.75 109.9 97.83 105.42 97.83"/><path class="cls-2" d="M43.07,91.86l-.57,0a.57.57,0,0,0-.61.55.6.6,0,0,0,.56.61L43,93a.59.59,0,0,0,.61-.56A.58.58,0,0,0,43.07,91.86Z"/><path class="cls-2" d="M44.9,94.57l-.57,0a.59.59,0,0,0-.61.56.58.58,0,0,0,.56.6l.57,0a.6.6,0,0,0,.61-.56h0A.58.58,0,0,0,44.9,94.57Z"/><path class="cls-3" d="M110.24,58.17h-8V58a1.63,1.63,0,0,0-1.63-1.63H51.26A1.63,1.63,0,0,0,49.63,58v.16h-8a.79.79,0,0,0-.79.78v1.77a.8.8,0,0,0,.79.79h7.14c-.71,1.11-4.52,1.42-7,1.42v1c3,0,6.94-.6,7.92-2.09a1.63,1.63,0,0,0,1.61,1.44H67.54a6.3,6.3,0,0,0-.9,2.17v0h-.28A15.53,15.53,0,0,0,51.24,77.58a42.84,42.84,0,0,0,49.38,0A15.52,15.52,0,0,0,85.5,65.51h-.27s0,0,0,0a6,6,0,0,0-.37-1.18,6.69,6.69,0,0,0-.53-1H100.6a1.63,1.63,0,0,0,1.61-1.44c1,1.49,4.94,2.09,7.93,2.09v-1c-2.52,0-6.33-.31-7-1.42h7.13a.8.8,0,0,0,.79-.79V59A.79.79,0,0,0,110.24,58.17Z"/><path class="cls-3" d="M60.49,57.74l1.72-1.06L55.61,46v0h0l-6.53-2.09a5.84,5.84,0,0,0,.05-.73,6.13,6.13,0,1,0-.63,2.67l5.8,1.86Z"/><path class="cls-1" d="M41,39a3.46,3.46,0,0,1,2.38.16A3.49,3.49,0,1,0,40,45.23,3.5,3.5,0,0,1,41,39Z"/><path class="cls-3" d="M108.85,37.11a6.08,6.08,0,0,0-6.08,6.08c0,.25,0,.49,0,.73L96.28,46h0v0l-6.6,10.64,1.72,1.06,6.22-10,5.8-1.86a6.08,6.08,0,1,0,5.46-8.75Z"/><path class="cls-1" d="M110.88,39a3.46,3.46,0,0,0-2.38.16A3.5,3.5,0,0,1,113.8,43a3.51,3.51,0,0,1-2,2.22,3.5,3.5,0,0,0-1-6.26Z"/><path class="cls-3" d="M89.86,57A13.93,13.93,0,1,1,71.6,43.68l-.71-2.17a16.2,16.2,0,1,0,10.29.07l-.74,2.16A14,14,0,0,1,89.86,57Z"/><path class="cls-3" d="M80.06,44.84,75.93,56.91,72,44.78a12.77,12.77,0,1,0,8.1.06Z"/><path class="cls-1" d="M82.08,40.34h0L81.23,40,75.94,55.51,70.85,40l-.85.28h0a17.68,17.68,0,1,0,12.07.08ZM75.51,57.05l.42,1.23.42-1.22L80.48,45a12.76,12.76,0,1,1-8.94-.06l3.77,11.53Zm.31,16.06a16.2,16.2,0,0,1-5.35-31.45l.71,2.17a13.92,13.92,0,1,0,9.68.06l.74-2.15a16.2,16.2,0,0,1-5.78,31.37Z"/><path class="cls-1" d="M76.06,35.85a12.69,12.69,0,0,0-4.06.64l4,12.12,4.14-12.07A12.66,12.66,0,0,0,76.06,35.85Z"/><path class="cls-1" d="M76.08,32.41a16,16,0,0,0-5.15.81l.71,2.16a13.93,13.93,0,0,1,8.84.06l.74-2.15A15.89,15.89,0,0,0,76.08,32.41Z"/><path class="cls-3" d="M82.27,31.61l-.43-.14a18.09,18.09,0,0,0-11.51-.08l-.42.14.46,1.4h0l.7,2.17h0l.43,1.3L76,50l4.71-13.76h0l.38-1.1h0l.58-1.68ZM71.55,33.49l1-.25.17,0c.33-.07.66-.12,1-.17l.16,0c.34,0,.68-.08,1-.1H75c.36,0,.72,0,1.09,0h0c.36,0,.72,0,1.08,0h.12q.51,0,1,.12l.16,0c.33,0,.66.12,1,.19l.17,0c.33.08.65.16,1,.26l.06,0-.45,1.31h0c-.29-.09-.59-.17-.89-.24l-.15,0-.9-.17-.15,0c-.3,0-.61-.08-.92-.11H77c-.32,0-.65,0-1,0s-.65,0-1,0H75c-.31,0-.61,0-.92.09l-.15,0-.9.16-.15,0a8.93,8.93,0,0,0-.89.23h0l-.43-1.32Zm1,3.3.3-.09.38-.09.57-.11.35-.07.64-.07.3,0c.31,0,.63,0,.94,0h0c.32,0,.63,0,1,0l.31,0c.21,0,.41,0,.62.08l.36.07.57.12.37.09.3.1L76,47.21Z"/><circle class="cls-3" cx="74.43" cy="38.26" r="0.82"/><circle class="cls-3" cx="76.48" cy="39.07" r="0.82"/><circle class="cls-3" cx="78.11" cy="37.85" r="0.41"/><circle class="cls-3" cx="74.84" cy="39.89" r="0.41"/><circle class="cls-3" cx="75.86" cy="43.36" r="0.61"/><circle class="cls-3" cx="76.27" cy="41.32" r="1.02"/><path class="cls-3" d="M70.73,62.38A1.23,1.23,0,1,0,72,63.61,1.23,1.23,0,0,0,70.73,62.38Z"/><path class="cls-3" d="M66.29,56.23a1.24,1.24,0,0,0-1.24,1.22,1.23,1.23,0,0,0,1.22,1.23,1.21,1.21,0,0,0,1.23-1.21A1.23,1.23,0,0,0,66.29,56.23Z"/><path class="cls-1" d="M84.46,54.51a.56.56,0,1,0,0-1.12.56.56,0,1,0,0,1.12Z"/><path class="cls-3" d="M79.77,62.4a1.88,1.88,0,1,0-1.86-1.89A1.88,1.88,0,0,0,79.77,62.4Z"/><circle class="cls-3" cx="70.06" cy="53.08" r="1.39" transform="translate(-0.07 0.1) rotate(-0.08)"/><path class="cls-1" d="M70.05,55.79a2.72,2.72,0,1,0-2.7-2.73A2.72,2.72,0,0,0,70.05,55.79Zm0-4.11a1.4,1.4,0,1,1-1.4,1.39A1.41,1.41,0,0,1,70.07,51.68Z"/><path class="cls-1" d="M79.76,64a3.48,3.48,0,1,0-3.46-3.5A3.47,3.47,0,0,0,79.76,64Zm0-5.35a1.88,1.88,0,1,1-1.89,1.86A1.88,1.88,0,0,1,79.8,58.65Z"/><path class="cls-1" d="M80.77,53.09a1.45,1.45,0,1,0-1.45-1.46A1.45,1.45,0,0,0,80.77,53.09Zm0-2.19a.75.75,0,1,1,0,1.49.75.75,0,0,1-.74-.75A.74.74,0,0,1,80.78,50.9Z"/><path class="cls-1" d="M66.3,55.07a2.39,2.39,0,1,0,2.37,2.4A2.4,2.4,0,0,0,66.3,55.07Zm0,3.61a1.23,1.23,0,0,1-1.22-1.23,1.24,1.24,0,0,1,1.24-1.22,1.23,1.23,0,0,1,1.21,1.24A1.21,1.21,0,0,1,66.27,58.68Z"/><path class="cls-1" d="M77.12,65.32a1.1,1.1,0,1,0,1.09,1.1A1.09,1.09,0,0,0,77.12,65.32Z"/><path class="cls-1" d="M71.8,57.55a1.1,1.1,0,1,0,1.09,1.11A1.1,1.1,0,0,0,71.8,57.55Z"/><path class="cls-1" d="M70.32,47.33a.85.85,0,1,0,.84.86A.85.85,0,0,0,70.32,47.33Z"/><path class="cls-1" d="M75.06,63.84a1.1,1.1,0,0,0,1.1-1.1,1.1,1.1,0,1,0-1.1,1.1Zm0-1.67a.57.57,0,0,1,.56.57.57.57,0,1,1-.56-.57Z"/><path class="cls-1" d="M80.94,56a.86.86,0,0,0,.86-.85.86.86,0,0,0-.85-.85.85.85,0,0,0,0,1.7Zm0-1.29a.44.44,0,1,1-.44.44A.44.44,0,0,1,81,54.69Z"/><path class="cls-1" d="M86.57,59.44a1.1,1.1,0,1,0-1.1-1.1A1.1,1.1,0,0,0,86.57,59.44Zm0-1.66a.57.57,0,0,1,.56.57.57.57,0,0,1-.57.56.57.57,0,1,1,0-1.13Z"/><path class="cls-1" d="M83.42,65.16a.81.81,0,0,0,0-1.62.81.81,0,1,0,0,1.62Zm0-1.22a.42.42,0,1,1,0,.83.42.42,0,0,1,0-.83Z"/><path class="cls-1" d="M83.42,50a.81.81,0,0,0,0-1.62.81.81,0,1,0,0,1.62Zm0-1.23a.43.43,0,0,1,.41.42.42.42,0,0,1-.42.42.41.41,0,0,1-.41-.42A.42.42,0,0,1,83.43,48.81Z"/><path class="cls-1" d="M84.45,55.05a1.1,1.1,0,1,0-1.09-1.11A1.1,1.1,0,0,0,84.45,55.05Zm0-1.66a.56.56,0,1,1-.57.56A.56.56,0,0,1,84.47,53.39Z"/><path class="cls-1" d="M70.74,61.22a2.39,2.39,0,1,0,2.37,2.4A2.38,2.38,0,0,0,70.74,61.22Zm0,3.61A1.23,1.23,0,1,1,72,63.61,1.22,1.22,0,0,1,70.71,64.83Z"/></g></g></svg>